<?xml version="1.0" encoding="utf-8"?>
<!-- Generator: Adobe Illustrator 22.0.1, SVG Export Plug-In . SVG Version: 6.00 Build 0)  -->
<svg version="1.1" id="Layer_1" xmlns="http://www.w3.org/2000/svg" xmlns:xlink="http://www.w3.org/1999/xlink" x="0px" y="0px"
	 viewBox="0 0 210 70" style="enable-background:new 0 0 210 70;" xml:space="preserve">
<style type="text/css">
	.st0{fill:#FFFFFF;}
</style>
<title>AppleStoreButton</title>
<desc>Created with Sketch.</desc>
<g id="Page-1">
	<g id="Desktop-HD" transform="translate(-788.000000, -628.000000)">
		<g id="AppleStoreButton" transform="translate(788.000000, 628.000000)">
			<g id="Group_1_">
				<g id="Path">
					<path id="XMLID_26_" d="M192.7,0H16.7c-0.6,0-1.3,0-1.9,0c-0.5,0-1.1,0-1.6,0C12,0,10.8,0.1,9.7,0.3C8.5,0.5,7.4,0.9,6.3,1.4
						c-1,0.5-2,1.2-2.8,2.1C2.7,4.3,2,5.3,1.4,6.3c-0.5,1-0.9,2.2-1.1,3.3C0.1,10.8,0,12,0,13.2c0,0.5,0,1.1,0,1.6v40.4
						c0,0.5,0,1.1,0,1.6c0,1.2,0.1,2.3,0.3,3.5c0.2,1.2,0.6,2.3,1.1,3.3c0.5,1,1.2,2,2.1,2.8c0.8,0.8,1.8,1.5,2.8,2.1
						c1,0.5,2.2,0.9,3.3,1.1c1.2,0.2,2.3,0.3,3.5,0.3c0.5,0,1.1,0,1.6,0c0.6,0,1.3,0,1.9,0h176.1c0.6,0,1.3,0,1.9,0
						c0.5,0,1.1,0,1.6,0c1.2,0,2.3-0.1,3.5-0.3c1.2-0.2,2.3-0.6,3.3-1.1c1-0.5,2-1.2,2.8-2.1c0.8-0.8,1.5-1.8,2.1-2.8
						c0.5-1,0.9-2.2,1.1-3.3c0.2-1.2,0.3-2.3,0.3-3.5c0-0.5,0-1.1,0-1.6c0-0.6,0-1.3,0-1.9V16.7c0-0.6,0-1.3,0-1.9
						c0-0.5,0-1.1,0-1.6c0-1.2-0.1-2.3-0.3-3.5c-0.2-1.2-0.6-2.3-1.1-3.3c-1.1-2.1-2.8-3.8-4.9-4.9c-1.1-0.5-2.2-0.9-3.3-1.1
						c-1.2-0.2-2.3-0.3-3.5-0.3c-0.5,0-1.1,0-1.6,0C194,0,193.4,0,192.7,0L192.7,0z"/>
					<path id="XMLID_25_" d="M14.8,68.5c-0.5,0-1.1,0-1.6,0c-1.1,0-2.2-0.1-3.3-0.3c-1-0.2-2-0.5-2.9-1c-0.9-0.5-1.7-1.1-2.4-1.8
						c-0.7-0.7-1.3-1.5-1.8-2.4c-0.5-0.9-0.8-1.9-1-2.9c-0.2-1.1-0.3-2.2-0.3-3.3c0-0.4,0-1.6,0-1.6V14.8c0,0,0-1.2,0-1.6
						c0-1.1,0.1-2.2,0.3-3.3c0.2-1,0.5-2,1-2.9c0.5-0.9,1.1-1.7,1.8-2.4C5.3,3.9,6.1,3.3,7,2.8c0.9-0.5,1.9-0.8,2.9-1
						c1.1-0.2,2.2-0.3,3.3-0.3l1.6,0h179.8l1.6,0c1.1,0,2.2,0.1,3.3,0.3c1,0.2,2,0.5,2.9,1c1.8,0.9,3.3,2.4,4.2,4.2
						c0.5,0.9,0.8,1.9,0.9,2.9c0.2,1.1,0.3,2.2,0.3,3.3c0,0.5,0,1,0,1.6c0,0.7,0,1.3,0,1.9v36.6c0,0.6,0,1.3,0,1.9
						c0,0.6,0,1.1,0,1.6c0,1.1-0.1,2.2-0.3,3.2c-0.2,1-0.5,2-0.9,2.9c-0.5,0.9-1.1,1.7-1.8,2.4c-0.7,0.7-1.5,1.3-2.4,1.8
						c-0.9,0.5-1.9,0.8-2.9,1c-1.1,0.2-2.2,0.3-3.3,0.3c-0.5,0-1,0-1.6,0l-1.9,0L14.8,68.5z"/>
				</g>
				<g id="_Group_" transform="translate(16.750000, 15.000000)">
					<g id="_Group_2">
						<g id="_Group_3">
							<path id="_Path_" class="st0" d="M26.6,20.5c0-3,1.6-5.7,4.1-7.3c-1.6-2.3-4.2-3.7-7-3.8c-2.9-0.3-5.8,1.8-7.3,1.8
								c-1.5,0-3.8-1.7-6.3-1.7c-3.3,0.1-6.2,1.9-7.8,4.8c-3.4,5.9-0.9,14.5,2.4,19.2c1.6,2.3,3.5,4.9,6,4.8
								c2.4-0.1,3.3-1.5,6.3-1.5c2.9,0,3.8,1.5,6.3,1.5c2.6,0,4.2-2.3,5.8-4.7c1.2-1.7,2.1-3.5,2.7-5.4
								C28.6,26.9,26.6,23.9,26.6,20.5z"/>
							<path id="_Path_2" class="st0" d="M21.8,6.4c1.4-1.7,2.1-3.9,2-6.1c-2.2,0.2-4.2,1.3-5.6,2.9c-1.4,1.6-2.1,3.7-2,5.9
								C18.3,9.1,20.4,8.1,21.8,6.4z"/>
						</g>
					</g>
					<g id="Group" transform="translate(42.750000, 15.750000)">
						<path id="Shape" class="st0" d="M14.5,16.7H6.2l-2,5.9H0.7L8.6,0.9h3.6l7.8,21.7h-3.6L14.5,16.7z M7.1,14h6.6l-3.2-9.5h-0.1
							L7.1,14z"/>
						<path id="Shape_1_" class="st0" d="M37,14.7c0,4.9-2.6,8.1-6.6,8.1c-2.1,0.1-4-1-5-2.8h-0.1v7.8h-3.3V6.8h3.1v2.6h0.1
							c1-1.8,3-2.9,5-2.8C34.4,6.6,37,9.8,37,14.7z M33.7,14.7c0-3.2-1.7-5.3-4.2-5.3c-2.5,0-4.2,2.2-4.2,5.3c0,3.2,1.7,5.3,4.2,5.3
							C32,20,33.7,17.9,33.7,14.7z"/>
						<path id="Shape_2_" class="st0" d="M54.5,14.7c0,4.9-2.6,8.1-6.6,8.1c-2.1,0.1-4-1-5-2.8h-0.1v7.8h-3.3V6.8h3.1v2.6h0.1
							c1-1.8,3-2.9,5-2.8C51.8,6.6,54.5,9.8,54.5,14.7z M51.1,14.7c0-3.2-1.7-5.3-4.2-5.3c-2.5,0-4.2,2.2-4.2,5.3
							c0,3.2,1.7,5.3,4.2,5.3C49.5,20,51.1,17.9,51.1,14.7L51.1,14.7z"/>
						<path id="Path_1_" class="st0" d="M66,16.6c0.2,2.2,2.3,3.6,5.2,3.6c2.7,0,4.7-1.4,4.7-3.4c0-1.7-1.2-2.7-4-3.4l-2.8-0.7
							c-4-1-5.8-2.8-5.8-5.9c0-3.7,3.3-6.3,7.9-6.3c4.6,0,7.7,2.6,7.8,6.3h-3.3c-0.2-2.2-2-3.5-4.6-3.5s-4.4,1.3-4.4,3.3
							c0,1.5,1.1,2.4,3.9,3.1l2.4,0.6c4.5,1.1,6.3,2.8,6.3,6c0,4.1-3.2,6.6-8.4,6.6c-4.8,0-8.1-2.5-8.3-6.4L66,16.6z"/>
						<path id="Path_2_" class="st0" d="M86.4,3v3.7h3v2.6h-3v8.7c0,1.4,0.6,2,1.9,2c0.4,0,0.7,0,1.1-0.1v2.6
							c-0.6,0.1-1.2,0.2-1.8,0.2c-3.2,0-4.5-1.2-4.5-4.3V9.3h-2.3V6.8h2.3V3H86.4z"/>
						<path id="Shape_3_" class="st0" d="M91.1,14.7c0-5,2.9-8.1,7.5-8.1c4.6,0,7.5,3.1,7.5,8.1c0,5-2.9,8.1-7.5,8.1
							C94,22.8,91.1,19.7,91.1,14.7z M102.8,14.7c0-3.4-1.6-5.4-4.2-5.4s-4.2,2-4.2,5.4c0,3.4,1.6,5.4,4.2,5.4
							S102.8,18.1,102.8,14.7L102.8,14.7z"/>
						<path id="Path_3_" class="st0" d="M108.8,6.8h3.1v2.7h0.1c0.4-1.7,2-2.9,3.8-2.9c0.4,0,0.7,0,1.1,0.1v3
							c-0.5-0.1-1-0.2-1.5-0.2c-1,0-1.9,0.3-2.5,1s-1,1.7-0.9,2.6v9.4h-3.3L108.8,6.8z"/>
						<path id="Shape_4_" class="st0" d="M131.9,18c-0.4,2.9-3.2,4.9-6.8,4.9c-4.6,0-7.5-3.1-7.5-8c0-5,2.9-8.2,7.3-8.2
							c4.4,0,7.1,3,7.1,7.8v1.1h-11.2v0.2c-0.1,1.2,0.3,2.3,1.1,3.2c0.8,0.9,2,1.3,3.1,1.3c1.6,0.1,3.1-0.8,3.7-2.2L131.9,18z
							 M120.9,13.2l7.9,0c0.1-1.1-0.3-2.1-1.1-2.9C127,9.6,126,9.2,125,9.2c-1.1,0-2.1,0.4-2.9,1.2
							C121.4,11.1,120.9,12.2,120.9,13.2z"/>
					</g>
				</g>
			</g>
			<g id="_Group_4" transform="translate(62.000000, 14.000000)">
				<g id="Group_2_">
					<path id="Shape_5_" class="st0" d="M4,1.3c1.4-0.1,2.7,0.4,3.7,1.4S9.1,5,8.9,6.3c0,3.3-1.8,5.1-4.9,5.1H0.2V1.3H4z M1.8,10h2
						c1,0.1,2-0.3,2.6-1s1-1.7,0.8-2.6c0.1-1-0.2-1.9-0.8-2.6s-1.6-1.1-2.6-1h-2V10z"/>
					<path id="Shape_6_" class="st0" d="M10.7,7.6c-0.1-1.4,0.5-2.7,1.8-3.5s2.7-0.7,4,0c1.2,0.7,1.9,2.1,1.8,3.5
						c0.1,1.4-0.5,2.7-1.8,3.5c-1.2,0.7-2.7,0.7-4,0C11.3,10.3,10.6,9,10.7,7.6z M16.6,7.6c0-1.7-0.8-2.7-2.1-2.7
						c-1.4,0-2.1,1-2.1,2.7c0,1.7,0.8,2.7,2.1,2.7C15.8,10.3,16.6,9.3,16.6,7.6L16.6,7.6z"/>
					<polygon id="Path_4_" class="st0" points="28.1,11.5 26.5,11.5 24.9,5.8 24.7,5.8 23.1,11.5 21.5,11.5 19.3,3.8 20.9,3.8 
						22.3,9.7 22.4,9.7 24.1,3.8 25.6,3.8 27.2,9.7 27.3,9.7 28.7,3.8 30.3,3.8 					"/>
					<path id="Path_5_" class="st0" d="M32.1,3.8h1.5V5h0.1c0.4-0.9,1.4-1.5,2.4-1.4c0.8-0.1,1.5,0.2,2.1,0.8
						C38.7,5,39,5.7,38.8,6.5v5h-1.6V6.9c0-1.2-0.6-1.9-1.7-1.9c-0.5,0-1,0.2-1.4,0.6c-0.4,0.4-0.5,0.9-0.5,1.4v4.5h-1.6L32.1,3.8z"
						/>
					<polygon id="Path_6_" class="st0" points="41.3,0.7 42.9,0.7 42.9,11.5 41.3,11.5 					"/>
					<path id="Shape_7_" class="st0" d="M45.1,7.6c-0.1-1.4,0.5-2.7,1.8-3.5c1.2-0.7,2.7-0.7,4,0c1.2,0.7,1.9,2.1,1.8,3.5
						c0.1,1.4-0.5,2.7-1.8,3.5s-2.7,0.7-4,0S44.9,9,45.1,7.6z M50.9,7.6c0-1.7-0.8-2.7-2.1-2.7c-1.4,0-2.1,1-2.1,2.7
						c0,1.7,0.8,2.7,2.1,2.7C50.2,10.3,50.9,9.3,50.9,7.6L50.9,7.6z"/>
					<path id="Shape_8_" class="st0" d="M54.2,9.3c0-1.4,1.1-2.2,2.9-2.3l2.1-0.1V6.2c0-0.8-0.6-1.3-1.6-1.3c-0.9,0-1.5,0.3-1.6,0.9
						h-1.5c0.2-1.3,1.4-2.2,3.2-2.2c2,0,3.1,1,3.1,2.6v5.3h-1.5v-1.1h-0.1c-0.5,0.8-1.4,1.3-2.4,1.2c-0.7,0.1-1.3-0.1-1.8-0.6
						C54.5,10.6,54.2,10,54.2,9.3z M59.3,8.6V8l-1.9,0.1c-1.1,0.1-1.6,0.4-1.6,1.1c0,0.7,0.6,1.1,1.5,1.1c0.5,0,1-0.1,1.4-0.4
						C59,9.6,59.2,9.1,59.3,8.6z"/>
					<path id="Shape_9_" class="st0" d="M62.9,7.6c0-2.4,1.3-4,3.3-4c1,0,2,0.5,2.4,1.4h0.1V0.7h1.6v10.7h-1.5v-1.2h-0.1
						c-0.5,0.9-1.5,1.4-2.5,1.3C64.1,11.6,62.9,10.1,62.9,7.6z M64.5,7.6c0,1.6,0.8,2.6,2.1,2.6c1.3,0,2.1-1,2.1-2.6
						C68.7,6,67.9,5,66.6,5C65.3,5,64.5,6,64.5,7.6L64.5,7.6z"/>
					<path id="Shape_10_" class="st0" d="M76.7,7.6c-0.1-1.4,0.5-2.7,1.8-3.5c1.2-0.7,2.7-0.7,4,0c1.2,0.7,1.9,2.1,1.8,3.5
						c0.1,1.4-0.5,2.7-1.8,3.5c-1.2,0.7-2.7,0.7-4,0C77.3,10.3,76.6,9,76.7,7.6z M82.6,7.6c0-1.7-0.8-2.7-2.1-2.7
						c-1.4,0-2.1,1-2.1,2.7c0,1.7,0.8,2.7,2.1,2.7C81.8,10.3,82.6,9.3,82.6,7.6z"/>
					<path id="Path_7_" class="st0" d="M86.3,3.8h1.5V5h0.1c0.4-0.9,1.4-1.5,2.4-1.4c0.8-0.1,1.5,0.2,2.1,0.8s0.8,1.3,0.7,2.1v5
						h-1.6V6.9c0-1.2-0.6-1.9-1.7-1.9c-0.5,0-1,0.2-1.4,0.6C88,5.9,87.8,6.5,87.8,7v4.5h-1.6V3.8z"/>
					<path id="Path_8_" class="st0" d="M101.8,1.8v2h1.7v1.3h-1.7v4c0,0.8,0.3,1.2,1.1,1.2c0.2,0,0.4,0,0.6,0v1.3
						c-0.3,0-0.6,0.1-0.8,0.1c-1.7,0-2.4-0.6-2.4-2.1V5.1H99V3.8h1.3v-2H101.8z"/>
					<path id="Path_9_" class="st0" d="M105.7,0.7h1.5V5h0.1c0.4-0.9,1.4-1.5,2.4-1.4c0.8,0,1.5,0.3,2.1,0.8
						c0.5,0.6,0.8,1.3,0.7,2.1v5h-1.6V6.9c0-1.2-0.6-1.9-1.7-1.9c-0.5,0-1.1,0.1-1.5,0.5c-0.4,0.4-0.6,0.9-0.5,1.4v4.5h-1.6
						L105.7,0.7z"/>
					<path id="Shape_11_" class="st0" d="M121.6,9.4c-0.4,1.5-1.9,2.4-3.4,2.2c-1.1,0-2.1-0.4-2.8-1.2c-0.7-0.8-1-1.8-0.9-2.8
						c-0.1-1,0.2-2.1,0.9-2.8s1.7-1.2,2.8-1.2c2.2,0,3.5,1.5,3.5,3.9V8h-5.6v0.1c0,0.6,0.2,1.1,0.6,1.6c0.4,0.4,1,0.7,1.6,0.7
						c0.8,0.1,1.5-0.3,1.9-0.9L121.6,9.4z M116.1,6.9h4c0-0.5-0.1-1-0.5-1.4c-0.4-0.4-0.9-0.6-1.4-0.6c-0.5,0-1.1,0.2-1.5,0.6
						C116.3,5.9,116.1,6.4,116.1,6.9L116.1,6.9z"/>
				</g>
			</g>
		</g>
	</g>
</g>
</svg>
