<?xml version="1.0" encoding="UTF-8"?>
<svg width="210px" height="70px" viewBox="0 0 210 70" version="1.1" xmlns="http://www.w3.org/2000/svg" xmlns:xlink="http://www.w3.org/1999/xlink">
    <!-- Generator: Sketch 52.4 (67378) - http://www.bohemiancoding.com/sketch -->
    <title>AppleStoreButton</title>
    <desc>Created with Sketch.</desc>
    <g id="Page-1" stroke="none" stroke-width="1" fill="none" fill-rule="evenodd">
        <g id="Desktop-HD" transform="translate(-788.000000, -628.000000)">
            <g id="AppleStoreButton" transform="translate(788.000000, 628.000000)">
                <g id="Group">
                    <g id="Path">
                        <path d="M192.735848,-1.08420217e-19 L16.68569,-1.08420217e-19 C16.043965,-1.08420217e-19 15.40994,-1.08420217e-19 14.7699125,0.0035 C14.23415,0.007 13.7026575,0.0171675 13.16175,0.025725 C11.9866489,0.0395531563 10.8143113,0.142933455 9.654925,0.3349675 C8.49716714,0.531182099 7.3756769,0.901102546 6.328385,1.4322175 C5.28237397,1.96782549 4.32660378,2.66379318 3.4957475,3.4948725 C2.66052937,4.32361474 1.96431057,5.28152866 1.4338625,6.33178 C0.901950423,7.37994096 0.533120872,8.50314202 0.3401125,9.66259 C0.145269147,10.8205736 0.0404221661,11.991911 0.0265125,13.16609 C0.0102725,13.70264 0.0085575,14.240975 0,14.777595 L0,55.22755 C0.0085575,55.770925 0.0102725,56.297325 0.0265125,56.840875 C0.0404264316,58.0149958 0.145273414,59.1862747 0.3401125,60.3442 C0.532587918,61.5043258 0.901439276,62.6281716 1.4338625,63.676725 C1.96406971,64.7235801 2.66038642,65.6776159 3.4957475,66.50175 C4.32345344,67.3365246 5.27984141,68.0329658 6.328385,68.564475 C7.37566895,69.0970115 8.49703828,69.4691337 9.654925,69.668375 C10.8145084,69.8588708 11.9867255,69.9622931 13.16175,69.977775 C13.7026575,69.989675 14.23415,69.9965 14.7699125,69.9965 C15.4099225,70 16.044,70 16.68569,70 L192.735848,70 C193.364798,70 194.003898,70 194.632848,69.9965 C195.166073,69.9965 195.712948,69.989675 196.246173,69.977775 C197.418975,69.9631165 198.588986,69.8596876 199.746173,69.668375 C200.907795,69.4677311 202.033184,69.0957074 203.085523,68.564475 C204.13312,68.032658 205.088626,67.3362359 205.915623,66.50175 C206.748828,65.6743882 207.446632,64.7210502 207.983423,63.676725 C208.511851,62.6274088 208.877191,61.5036529 209.066847,60.3442 C209.261998,59.1861158 209.370566,58.0150975 209.391647,56.840875 C209.398472,56.297325 209.398472,55.770925 209.398472,55.22755 C209.412122,54.591775 209.412122,53.9595 209.412122,53.3134 L209.412122,16.6882275 C209.412122,16.04736 209.412122,15.41162 209.398472,14.777595 C209.398472,14.240975 209.398472,13.70264 209.391647,13.16602 C209.37057,11.9917393 209.262003,10.8206624 209.066847,9.66252 C208.876662,8.5037428 208.511343,7.38063074 207.983422,6.33171 C206.90319,4.22659314 205.190253,2.51304445 203.085522,1.43206 C202.033181,0.902242915 200.907671,0.532420717 199.746173,0.33481 C198.589186,0.14192987 197.419054,0.0385135886 196.246173,0.02548 C195.712948,0.01694 195.166073,0.006685 194.632848,0.0032725 C194.003898,-0.0002275 193.364798,-0.0002275 192.735848,-0.0002275 L192.735848,-1.08420217e-19 Z" fill="#A6A6A6"></path>
                        <path d="M14.7784525,68.46875 C14.2452625,68.46875 13.7249525,68.461925 13.195945,68.450025 C12.1000631,68.4357463 11.0067426,68.3403438 9.92495,68.1646 C8.91623303,67.9908743 7.93905743,67.6677128 7.025655,67.205775 C6.12062798,66.7476647 5.29517059,66.1469775 4.580905,65.426725 C3.85630057,64.7149567 3.25303428,63.8894269 2.7950125,62.98285 C2.33194371,62.070381 2.01147254,61.0923242 1.8447625,60.08275 C1.66473013,58.997951 1.56732515,57.9010482 1.5533875,56.8015 C1.5422925,56.432425 1.5277675,55.203575 1.5277675,55.203575 L1.5277675,14.777595 C1.5277675,14.777595 1.5432375,13.5676275 1.553475,13.21215 C1.5668202,12.1143436 1.66365876,11.0191429 1.8431525,9.9360275 C2.01017027,8.92368764 2.33088953,7.94281052 2.7942075,7.0273525 C3.25054594,6.12140174 3.85046302,5.29525551 4.5707025,4.58094 C5.29013245,3.85983748 6.11823032,3.25605721 7.0247975,2.7916175 C7.93610067,2.33116381 8.91142953,2.01028195 9.9181075,1.8397225 C11.0034528,1.66221324 12.100569,1.56624315 13.20025,1.5526175 L14.77931,1.53125 L194.624273,1.53125 L196.222198,1.553475 C197.311876,1.5664236 198.399026,1.66153751 199.474398,1.8380075 C200.491266,2.01070637 201.47676,2.33382718 202.398473,2.796745 C204.214655,3.73272558 205.692448,5.21353516 206.624723,7.0316225 C207.080645,7.94076074 207.396418,8.91363682 207.561323,9.9172325 C207.742954,11.0092349 207.844607,12.1130421 207.865473,13.21985 C207.870548,13.71545 207.870548,14.2478 207.870548,14.777595 C207.884373,15.433845 207.884373,16.0584725 207.884373,16.6882275 L207.884373,53.3134 C207.884373,53.949175 207.884373,54.56955 207.870548,55.195 C207.870548,55.7641 207.870548,56.285425 207.863723,56.821975 C207.843309,57.9090324 207.74335,58.9931374 207.564648,60.0656 C207.401355,61.082457 207.082628,62.068148 206.619648,62.9881 C206.158388,63.884837 205.558586,64.7032158 204.842347,65.413075 C204.127439,66.1371981 203.300525,66.7413997 202.393397,67.20245 C201.474238,67.6679389 200.490195,67.9922955 199.474398,68.1646 C198.392687,68.3412817 197.299261,68.4366903 196.203297,68.450025 C195.690722,68.461925 195.153998,68.46875 194.632847,68.46875 L192.735847,68.47225 L14.7784525,68.46875 Z" fill="#000000"></path>
                    </g>
                    <g id="_Group_" transform="translate(16.750000, 15.000000)" fill="#FFFFFF">
                        <g id="_Group_2">
                            <g id="_Group_3">
                                <path d="M26.59554,20.52619 C26.6337897,17.557366 28.1902151,14.8150757 30.71952,13.260085 C29.1166471,10.9708973 26.5281861,9.57153712 23.73499,9.484145 C20.79632,9.17569 17.9474075,11.2425975 16.449915,11.2425975 C14.9234425,11.2425975 12.6178175,9.51477 10.13504,9.5658525 C6.86835221,9.67139223 3.89674005,11.4836696 2.30743,14.339625 C-1.07707,20.19936 1.4474625,28.8111975 4.68953,33.547765 C6.311605,35.8671275 8.207345,38.457915 10.6878825,38.36604 C13.1152375,38.2653625 14.0218075,36.8182 16.9518325,36.8182 C19.8546625,36.8182 20.705215,38.36604 23.2360825,38.307625 C25.8407475,38.265345 27.48181,35.977955 29.046975,33.63663 C30.2124332,31.9839995 31.1092514,30.1574829 31.70421,28.2247375 C28.610659,26.9163172 26.5991507,23.8850601 26.59554,20.52619 Z" id="_Path_"></path>
                                <path d="M21.8151875,6.3690575 C23.235359,4.66419333 23.9350237,2.47287929 23.7655975,0.2604725 C21.5958912,0.488358353 19.5916904,1.52533693 18.1523325,3.16479 C16.7310328,4.78233079 16.0110056,6.89850719 16.15084,9.0472225 C18.3496395,9.06986184 20.4373532,8.08276813 21.8151875,6.3690575 Z" id="_Path_2"></path>
                            </g>
                        </g>
                        <g id="Group" transform="translate(42.750000, 15.750000)">
                            <path d="M14.5289725,16.7443875 L6.2455225,16.7443875 L4.2562625,22.618175 L0.7477225,22.618175 L8.5936725,0.886675 L12.2389225,0.886675 L20.0848725,22.618175 L16.5165,22.618175 L14.5289725,16.7443875 Z M7.103425,14.033935 L13.669425,14.033935 L10.4326075,4.5012125 L10.3420275,4.5012125 L7.103425,14.033935 Z" id="Shape" fill-rule="nonzero"></path>
                            <path d="M37.0294575,14.6970275 C37.0294575,19.6206175 34.3942025,22.783935 30.4173975,22.783935 C28.3618217,22.8914631 26.4255817,21.8148037 25.432295,20.011935 L25.357045,20.011935 L25.357045,27.8596 L22.104845,27.8596 L22.104845,6.774165 L25.25285,6.774165 L25.25285,9.40942 L25.312665,9.40942 C26.3500795,7.61785386 28.2884075,6.54165796 30.3575825,6.6083875 C34.37875,6.608405 37.0294575,9.787105 37.0294575,14.6970275 Z M33.6866775,14.6970275 C33.6866775,11.4892775 32.028955,9.38037 29.4996625,9.38037 C27.0148025,9.38037 25.3434125,11.5336925 25.3434125,14.6970275 C25.3434125,17.8894125 27.0148025,20.0273525 29.4996625,20.0273525 C32.0289725,20.0273525 33.6866775,17.933845 33.6866775,14.6970275 Z" id="Shape" fill-rule="nonzero"></path>
                            <path d="M54.4679275,14.6970275 C54.4679275,19.6206175 51.8326725,22.783935 47.8558675,22.783935 C45.8002917,22.8914631 43.8640517,21.8148037 42.870765,20.011935 L42.795515,20.011935 L42.795515,27.8596 L39.543315,27.8596 L39.543315,6.774165 L42.69125,6.774165 L42.69125,9.40942 L42.751065,9.40942 C43.7884871,7.61785494 45.7268224,6.54166538 47.796,6.608405 C51.81729,6.608405 54.4679275,9.787105 54.4679275,14.6970275 Z M51.1251475,14.6970275 C51.1251475,11.4892775 49.467425,9.38037 46.9381325,9.38037 C44.4532725,9.38037 42.7818825,11.5336925 42.7818825,14.6970275 C42.7818825,17.8894125 44.4532725,20.0273525 46.9381325,20.0273525 C49.4674425,20.0273525 51.125165,17.933845 51.125165,14.6970275 L51.1251475,14.6970275 Z" id="Shape" fill-rule="nonzero"></path>
                            <path d="M65.9933225,16.5632275 C66.2342975,18.718265 68.3278225,20.1332275 71.188635,20.1332275 C73.9298525,20.1332275 75.902015,18.718195 75.902015,16.775065 C75.902015,15.0882925 74.7125575,14.078315 71.89616,13.386155 L69.0797625,12.70768 C65.08929,11.743815 63.23674,9.8775975 63.23674,6.849275 C63.23674,3.09976 66.5043225,0.52432 71.1442025,0.52432 C75.7362025,0.52432 78.88419,3.09976 78.9901525,6.849275 L75.7071525,6.849275 C75.5106275,4.68057 73.7178925,3.3715 71.09802,3.3715 C68.4781475,3.3715 66.68543,4.69597 66.68543,6.6237 C66.68543,8.1600775 67.830455,9.0641275 70.63147,9.7562 L73.02575,10.344095 C77.4844875,11.39854 79.3370375,13.189595 79.3370375,16.36826 C79.3370375,20.43393 76.098505,22.98032 70.947625,22.98032 C66.1282825,22.98032 62.874385,20.493745 62.664175,16.56307 L65.9933225,16.5632275 Z" id="Path"></path>
                            <path d="M86.3558675,3.02465 L86.3558675,6.774165 L89.3688075,6.774165 L89.3688075,9.349605 L86.3558675,9.349605 L86.3558675,18.0842225 C86.3558675,19.441155 86.959145,20.0734825 88.2835975,20.0734825 C88.6412825,20.0672454 88.9983888,20.0421271 89.353425,19.9982325 L89.353425,22.55829 C88.7579496,22.6695542 88.1526989,22.7199454 87.5470225,22.708685 C84.3392725,22.708685 83.088285,21.503845 83.088285,18.43109 L83.088285,9.349605 L80.784585,9.349605 L80.784585,6.774165 L83.08825,6.774165 L83.08825,3.02465 L86.3558675,3.02465 Z" id="Path"></path>
                            <path d="M91.11375,14.6970275 C91.11375,9.711925 94.0497775,6.579355 98.6281625,6.579355 C103.221913,6.579355 106.144273,9.711855 106.144273,14.6970275 C106.144273,19.695815 103.237295,22.8147 98.6281625,22.8147 C94.0206575,22.8147 91.11375,19.6957975 91.11375,14.6970275 Z M102.830543,14.6970275 C102.830543,11.2773525 101.2634,9.2590425 98.628145,9.2590425 C95.99289,9.2590425 94.4274625,11.292735 94.4274625,14.6970275 C94.4274625,18.13037 95.99289,20.133315 98.628145,20.133315 C101.2634,20.133315 102.830473,18.13037 102.830473,14.6970275 L102.830543,14.6970275 Z" id="Shape" fill-rule="nonzero"></path>
                            <path d="M108.825605,6.774165 L111.92741,6.774165 L111.92741,9.470915 L112.00266,9.470915 C112.435218,7.73489471 114.025892,6.54010522 115.813688,6.60837 C116.188475,6.6070614 116.562228,6.64776381 116.927948,6.729715 L116.927948,9.771705 C116.454802,9.62712581 115.961229,9.56074476 115.466698,9.57518 C114.510582,9.53639202 113.585274,9.91743578 112.933733,10.6182605 C112.282191,11.3190851 111.969509,12.2696738 112.077788,13.22043 L112.077788,22.61814 L108.825588,22.61814 L108.825605,6.774165 Z" id="Path"></path>
                            <path d="M131.922525,17.9645925 C131.485025,20.840805 128.683993,22.8146825 125.100255,22.8146825 C120.491123,22.8146825 117.630293,19.726545 117.630293,14.7722075 C117.630293,9.8024875 120.506505,6.5793375 124.963545,6.5793375 C129.347085,6.5793375 132.103685,9.5905625 132.103685,14.3945225 L132.103685,15.5087825 L120.913258,15.5087825 L120.913258,15.7053075 C120.808778,16.8848628 121.21608,18.052459 122.03156,18.9110974 C122.847039,19.7697357 123.992098,20.2366583 125.17547,20.193095 C126.753694,20.3409693 128.24165,19.4347109 128.834405,17.964575 L131.922525,17.9645925 Z M120.928609,13.2358475 L128.84977,13.23583 C128.90879,12.1759206 128.522969,11.1394404 127.785263,10.3761052 C127.047556,9.61277002 126.024851,9.19179072 124.963545,9.2145925 C123.893843,9.2082089 122.865909,9.6293856 122.10822,10.3845082 C121.350531,11.1396308 120.925868,12.1661301 120.928609,13.2358475 Z" id="Shape" fill-rule="nonzero"></path>
                        </g>
                    </g>
                </g>
                <g id="_Group_4" transform="translate(62.000000, 14.000000)" fill="#FFFFFF">
                    <g id="Group">
                        <path d="M3.96601957,1.25314286 C5.35231138,1.15608717 6.71015355,1.67065273 7.66580912,2.65520883 C8.6214647,3.63976493 9.07420232,4.99053393 8.899409,6.33572571 C8.899409,9.60358286 7.08907743,11.4820114 3.96601957,11.4820114 L0.178902286,11.4820114 L0.178902286,1.25314286 L3.96601957,1.25314286 Z M1.80733443,10.0354286 L3.78412014,10.0354286 C4.77483585,10.0932034 5.73949775,9.71238687 6.41025539,8.99871736 C7.08101303,8.28504784 7.3864556,7.31450471 7.24177314,6.35657143 C7.37592927,5.40261349 7.066088,4.44007923 6.39699346,3.73222968 C5.72789893,3.02438014 4.76957096,2.6452908 3.78412014,2.69864571 L1.80733443,2.69864571 L1.80733443,10.0354286 Z" id="Shape" fill-rule="nonzero"></path>
                        <path d="M10.7389091,7.61886857 C10.6032351,6.23524294 11.2832784,4.89619189 12.4938308,4.16330977 C13.7043833,3.43042766 15.2361437,3.43042766 16.4466962,4.16330977 C17.6572486,4.89619189 18.3372919,6.23524294 18.2016179,7.61886857 C18.3398733,9.00398102 17.6604506,10.3456292 16.4488249,11.0800891 C15.2371991,11.8145489 13.7033279,11.8145489 12.4917021,11.0800891 C11.2800764,10.3456292 10.6006537,9.00398102 10.7389091,7.61886857 Z M16.5954663,7.61886857 C16.5954663,5.94560571 15.8249943,4.96709143 14.4728377,4.96709143 C13.1155151,4.96709143 12.3519663,5.94560571 12.3519663,7.61888571 C12.3519663,9.30555429 13.1155679,10.2765257 14.4728377,10.2765257 C15.8250294,10.2765086 16.5954839,9.29883429 16.5954839,7.61886857 L16.5954663,7.61886857 Z" id="Shape" fill-rule="nonzero"></path>
                        <polygon id="Path" points="28.1215854 11.4818571 26.5017281 11.4818571 24.8664256 5.79658286 24.7428809 5.79658286 23.1144311 11.4818571 21.5100016 11.4818571 19.3290183 3.76254857 20.9128541 3.76254857 22.3302359 9.65283429 22.4469277 9.65283429 24.0736554 3.76254857 25.57169 3.76254857 27.1984177 9.65283429 27.3219624 9.65283429 28.7324737 3.76254857 30.2939939 3.76254857"></polygon>
                        <path d="M32.1283631,3.76254857 L33.6315286,3.76254857 L33.6315286,4.98882857 L33.7482204,4.98882857 C34.154006,4.08596218 35.1022094,3.53366995 36.1093811,3.61354286 C36.8892307,3.55634018 37.653428,3.84821126 38.1862024,4.40674641 C38.7189767,4.96528155 38.9625121,5.7298693 38.8480464,6.48462857 L38.8480464,11.4817714 L37.2865263,11.4817714 L37.2865263,6.86718857 C37.2865263,5.62668 36.7339927,5.00976 35.5791457,5.00976 C35.0501857,4.9857242 34.536844,5.18825583 34.1737031,5.56425734 C33.8105622,5.94025885 33.6338393,6.4522303 33.6898657,6.96594857 L33.6898657,11.4818571 L32.1283456,11.4818571 L32.1283631,3.76254857 Z" id="Path"></path>
                        <polygon id="Path" points="41.3361959 0.749142857 42.897716 0.749142857 42.897716 11.48184 41.3361959 11.48184"></polygon>
                        <path d="M45.0684024,7.61886857 C44.9328326,6.23515243 45.6129832,4.89606748 46.8236254,4.16317406 C48.0342677,3.43028064 49.5661069,3.43028064 50.7767491,4.16317406 C51.9873914,4.89606748 52.667542,6.23515243 52.5319721,7.61886857 C52.670052,9.00403061 51.9905048,10.3456409 50.778819,11.0800684 C49.5671331,11.8144959 48.0332415,11.8144959 46.8215556,11.0800684 C45.6098697,10.3456409 44.9303226,9.00403061 45.0684024,7.61886857 Z M50.9249596,7.61886857 C50.9249596,5.94560571 50.1544876,4.96709143 48.802331,4.96709143 C47.4450084,4.96709143 46.6814596,5.94560571 46.6814596,7.61888571 C46.6814596,9.30555429 47.4450611,10.2765257 48.802331,10.2765257 C50.1545051,10.2765086 50.9249771,9.29883429 50.9249771,7.61886857 L50.9249596,7.61886857 Z" id="Shape" fill-rule="nonzero"></path>
                        <path d="M54.1758671,9.29883429 C54.1758671,7.90932 55.236338,7.10826857 57.11873,6.99442286 L59.2619699,6.87389143 L59.2619699,6.2076 C59.2619699,5.39230286 58.7094363,4.93193143 57.6421126,4.93193143 C56.7704116,4.93193143 56.1663937,5.24415429 55.9930691,5.78991429 L54.4813113,5.78991429 C54.640895,4.46401714 55.9192867,3.61357714 57.714173,3.61357714 C59.6978291,3.61357714 60.8166371,4.57700571 60.8166371,6.2076 L60.8166371,11.4818743 L59.3134541,11.4818743 L59.3134541,10.3970571 L59.1899094,10.3970571 C58.6793691,11.1892737 57.7714623,11.6522798 56.8133034,11.6090571 C56.1416112,11.6772203 55.4717093,11.4649897 54.9692098,11.0248328 C54.4667103,10.5846758 54.1785135,9.95767425 54.1758671,9.29883429 Z M59.2619699,8.63922857 L59.2619699,7.99386857 L57.329798,8.1144 C56.2401586,8.18554286 55.7459621,8.54715429 55.7459621,9.22767429 C55.7459621,9.92242286 56.3637033,10.32672 57.2131764,10.32672 C57.7160462,10.3763826 58.2180449,10.2248144 58.6042544,9.90671244 C58.9904639,9.5886105 59.2278138,9.13121324 59.2619699,8.63922857 Z" id="Shape" fill-rule="nonzero"></path>
                        <path d="M62.8689097,7.61886857 C62.8689097,5.17969714 64.1541719,3.63449143 66.1532557,3.63449143 C67.1626935,3.58911451 68.1081255,4.11681063 68.579624,4.98877714 L68.6963159,4.98877714 L68.6963159,0.749142857 L70.257836,0.749142857 L70.257836,11.48184 L68.7615234,11.48184 L68.7615234,10.2622457 L68.6379787,10.2622457 C68.1308395,11.1269777 67.1737595,11.645754 66.1532733,11.6090571 C64.1404486,11.6091429 62.8689097,10.0639029 62.8689097,7.61886857 Z M64.4819669,7.61886857 C64.4819669,9.25614857 65.2730326,10.2413657 66.5960381,10.2413657 C67.9121381,10.2413657 68.7255371,9.24193714 68.7255371,7.62557143 C68.7255371,6.01674857 67.9035984,5.00307429 66.5960381,5.00307429 C65.2815547,5.00307429 64.4819141,5.99497714 64.4819141,7.61886857 L64.4819669,7.61886857 Z" id="Shape" fill-rule="nonzero"></path>
                        <path d="M76.7184286,7.61886857 C76.5827545,6.23524294 77.2627979,4.89619189 78.4733503,4.16330977 C79.6839027,3.43042766 81.2156632,3.43042766 82.4262156,4.16330977 C83.636768,4.89619189 84.3168113,6.23524294 84.1811373,7.61886857 C84.3193927,9.00398102 83.6399701,10.3456292 82.4283443,11.0800891 C81.2167186,11.8145489 79.6828473,11.8145489 78.4712215,11.0800891 C77.2595958,10.3456292 76.5801732,9.00398102 76.7184286,7.61886857 Z M82.5749857,7.61886857 C82.5749857,5.94560571 81.8045137,4.96709143 80.4523571,4.96709143 C79.0950346,4.96709143 78.3314857,5.94560571 78.3314857,7.61888571 C78.3314857,9.30555429 79.0950873,10.2765257 80.4523571,10.2765257 C81.8045313,10.2765086 82.5749857,9.29883429 82.5749857,7.61886857 Z" id="Shape" fill-rule="nonzero"></path>
                        <path d="M86.2763193,3.76254857 L87.7795023,3.76254857 L87.7795023,4.98882857 L87.8961941,4.98882857 C88.3019797,4.08596218 89.2501832,3.53366995 90.2573549,3.61354286 C91.0372044,3.55634018 91.8014017,3.84821126 92.3341761,4.40674641 C92.8669504,4.96528155 93.1104858,5.7298693 92.9960201,6.48462857 L92.9960201,11.4817714 L91.4345,11.4817714 L91.4345,6.86718857 C91.4345,5.62668 90.8819664,5.00976 89.7271194,5.00976 C89.1981594,4.9857242 88.6848177,5.18825583 88.3216768,5.56425734 C87.9585359,5.94025885 87.781813,6.4522303 87.8378394,6.96594857 L87.8378394,11.4818571 L86.2763193,11.4818571 L86.2763193,3.76254857 Z" id="Path"></path>
                        <path d="M101.819495,1.84068 L101.819495,3.79770857 L103.533746,3.79770857 L103.533746,5.08092 L101.819495,5.08092 L101.819495,9.05022857 C101.819495,9.85882286 102.160979,10.2128914 102.938303,10.2128914 C103.13731,10.2122701 103.336116,10.2005308 103.533746,10.1777314 L103.533746,11.4466971 C103.253323,11.4956412 102.969204,11.5216801 102.684344,11.5245429 C100.947794,11.5245429 100.256253,10.9285543 100.256253,9.44028 L100.256253,5.08085143 L99.0001773,5.08085143 L99.0001773,3.79764 L100.256253,3.79764 L100.256253,1.84068 L101.819495,1.84068 Z" id="Path"></path>
                        <path d="M105.666672,0.749142857 L107.214469,0.749142857 L107.214469,5.00305714 L107.338013,5.00305714 C107.763291,4.09228896 108.728089,3.53929293 109.750571,3.62024571 C110.525992,3.57908105 111.279844,3.87737779 111.806795,4.43388661 C112.333747,4.99039542 112.578912,5.74715252 112.475513,6.49803429 L112.475513,11.4818571 L110.912429,11.4818571 L110.912429,6.87385714 C110.912429,5.64087429 110.323786,5.01642857 109.220493,5.01642857 C108.677236,4.97296057 108.14201,5.16564164 107.757904,5.54296029 C107.373799,5.92027894 107.179979,6.44376053 107.228262,6.97345714 L107.228262,11.4818229 L105.666742,11.4818229 L105.666672,0.749142857 Z" id="Path"></path>
                        <path d="M121.580482,9.39759429 C121.142615,10.8536734 119.698317,11.7944623 118.151998,11.6308457 C117.096946,11.6580175 116.082982,11.2313669 115.379135,10.4640946 C114.675289,9.69682222 114.352715,8.6664959 114.497,7.64648571 C114.356547,6.62364082 114.677912,5.59166354 115.37784,4.81790907 C116.077767,4.04415459 117.087384,3.60476015 118.145127,3.61356 C120.346704,3.61356 121.674858,5.08098857 121.674858,7.50498857 L121.674858,8.03657143 L116.087689,8.03657143 L116.087689,8.12194286 C116.038246,8.69475453 116.238769,9.261339 116.639943,9.68235549 C117.041116,10.103372 117.605716,10.3397553 118.19489,10.3333714 C118.958846,10.422848 119.702505,10.0531424 120.077299,9.39754286 L121.580482,9.39759429 Z M116.087654,6.90987429 L120.084117,6.90987429 C120.123921,6.38598932 119.935108,5.87006584 119.564208,5.48924416 C119.193308,5.10842248 118.674814,4.89811924 118.1365,4.91016 C117.590893,4.90347242 117.065641,5.1120364 116.679892,5.48854094 C116.294144,5.86504548 116.080595,6.37757783 116.087689,6.90987429 L116.087654,6.90987429 Z" id="Shape" fill-rule="nonzero"></path>
                    </g>
                </g>
            </g>
        </g>
    </g>
</svg>