<?xml version="1.0" encoding="UTF-8"?>
<svg width="214px" height="70px" viewBox="0 0 214 70" version="1.1" xmlns="http://www.w3.org/2000/svg" xmlns:xlink="http://www.w3.org/1999/xlink">
    <!-- Generator: Sketch 52.4 (67378) - http://www.bohemiancoding.com/sketch -->
    <title>googlePlayButton</title>
    <desc>Created with Sketch.</desc>
    <defs>
        <path d="M30.460622,16.7973917 L20.7706494,11.1656697 C20.7706494,11.1656697 3.11756512,0.904219537 2.07975391,0.301077543 C1.04197772,-0.302064451 0.0079828938,0.0633736153 0.0079828938,1.32379658 L0.0079828938,45.5870947 C0.0079828938,46.5319889 0.746995786,46.9393001 1.64864263,46.4156747 C2.54986933,45.8912034 20.7706494,35.3006898 20.7706494,35.3006898 L30.4602018,29.6693555 C30.4602018,29.6693555 38.6817421,24.8912034 39.7745233,24.2563041 C40.8673744,23.6205942 40.7623363,22.7492951 39.840102,22.2493907 C38.9182879,21.748993 30.460622,16.7973917 30.460622,16.7973917 Z" id="path-1"></path>
        <linearGradient x1="49.9998541%" y1="0.000147098194%" x2="49.9998541%" y2="100.000147%" id="linearGradient-3">
            <stop stop-color="#257CB0" offset="0%"></stop>
            <stop stop-color="#4A93B5" offset="28.6%"></stop>
            <stop stop-color="#78BCBB" offset="76.7%"></stop>
            <stop stop-color="#89CFBD" offset="100%"></stop>
        </linearGradient>
        <path d="M30.460622,16.7973917 L20.7706494,11.1656697 C20.7706494,11.1656697 3.11756512,0.904219537 2.07975391,0.301077543 C1.04197772,-0.302064451 0.0079828938,0.0633736153 0.0079828938,1.32379658 L0.0079828938,45.5870947 C0.0079828938,46.5319889 0.746995786,46.9393001 1.64864263,46.4156747 C2.54986933,45.8912034 20.7706494,35.3006898 20.7706494,35.3006898 L30.4602018,29.6693555 C30.4602018,29.6693555 38.6817421,24.8912034 39.7745233,24.2563041 C40.8673744,23.6205942 40.7623363,22.7492951 39.840102,22.2493907 C38.9182879,21.748993 30.460622,16.7973917 30.460622,16.7973917 Z" id="path-4"></path>
        <linearGradient x1="0.00126473415%" y1="49.9985397%" x2="100.001265%" y2="49.9985397%" id="linearGradient-6">
            <stop stop-color="#52C1AD" offset="0%"></stop>
            <stop stop-color="#DEE89A" offset="100%"></stop>
        </linearGradient>
        <path d="M30.460622,16.7973917 L20.7706494,11.1656697 C20.7706494,11.1656697 3.11756512,0.904219537 2.07975391,0.301077543 C1.04197772,-0.302064451 0.0079828938,0.0633736153 0.0079828938,1.32379658 L0.0079828938,45.5870947 C0.0079828938,46.5319889 0.746995786,46.9393001 1.64864263,46.4156747 C2.54986933,45.8912034 20.7706494,35.3006898 20.7706494,35.3006898 L30.4602018,29.6693555 C30.4602018,29.6693555 38.6817421,24.8912034 39.7745233,24.2563041 C40.8673744,23.6205942 40.7623363,22.7492951 39.840102,22.2493907 C38.9182879,21.748993 30.460622,16.7973917 30.460622,16.7973917 Z" id="path-7"></path>
        <linearGradient x1="49.999885%" y1="0.000292074841%" x2="49.999885%" y2="100.000292%" id="linearGradient-9">
            <stop stop-color="#EC413D" offset="0%"></stop>
            <stop stop-color="#DA4452" offset="16.7%"></stop>
            <stop stop-color="#B0487A" offset="57.5%"></stop>
            <stop stop-color="#954A92" offset="86.2%"></stop>
            <stop stop-color="#8A4A9D" offset="100%"></stop>
        </linearGradient>
        <path d="M30.460622,16.7973917 L20.7706494,11.1656697 C20.7706494,11.1656697 3.11756512,0.904219537 2.07975391,0.301077543 C1.04197772,-0.302064451 0.0079828938,0.0633736153 0.0079828938,1.32379658 L0.0079828938,45.5870947 C0.0079828938,46.5319889 0.746995786,46.9393001 1.64864263,46.4156747 C2.54986933,45.8912034 20.7706494,35.3006898 20.7706494,35.3006898 L30.4602018,29.6693555 C30.4602018,29.6693555 38.6817421,24.8912034 39.7745233,24.2563041 C40.8673744,23.6205942 40.7623363,22.7492951 39.840102,22.2493907 C38.9182879,21.748993 30.460622,16.7973917 30.460622,16.7973917 Z" id="path-10"></path>
        <linearGradient x1="50.0010991%" y1="0.000547669119%" x2="50.0010991%" y2="99.9972617%" id="linearGradient-12">
            <stop stop-color="#F58879" offset="0%"></stop>
            <stop stop-color="#F69079" offset="11.9%"></stop>
            <stop stop-color="#FCB877" offset="71.3%"></stop>
            <stop stop-color="#FEC874" offset="100%"></stop>
        </linearGradient>
    </defs>
    <g id="Page-1" stroke="none" stroke-width="1" fill="none" fill-rule="evenodd">
        <g id="Desktop-HD" transform="translate(-458.000000, -628.000000)">
            <g id="googlePlayButton" transform="translate(458.000000, 628.000000)">
                <path d="M213.043478,60.5395342 C213.043478,65.7634585 208.827809,70 203.62793,70 L9.4175965,70 C4.21730051,70.0004184 0,65.7638769 0,60.5395342 L0,9.45962907 C-4.77848454e-16,4.23612315 4.21730051,0 9.4175965,0 L203.627513,0 C208.827393,0 213.043062,4.23612315 213.043062,9.45962907 L213.043062,60.5395342 L213.043478,60.5395342 Z" id="Path" fill="#000000"></path>
                <g id="Clipped" transform="translate(16.231884, 14.202899)">
                    <mask id="mask-2" fill="white">
                        <use xlink:href="#path-1"></use>
                    </mask>
                    <g id="a"></g>
                    <polygon id="Path" fill="url(#linearGradient-3)" mask="url(#mask-2)" points="0.0084030461 -0.727985901 0.0084030461 47.1947331 24.0133849 23.2335851"></polygon>
                </g>
                <g id="Clipped" transform="translate(16.231884, 14.202899)">
                    <mask id="mask-5" fill="white">
                        <use xlink:href="#path-4"></use>
                    </mask>
                    <g id="d"></g>
                    <polygon id="Path" fill="url(#linearGradient-6)" mask="url(#mask-5)" points="30.460622 16.7973917 20.7706494 11.1656697 0.0084030461 -0.90224572 0.0084030461 -0.727985901 24.0133849 23.2335851"></polygon>
                </g>
                <g id="Clipped" transform="translate(16.231884, 14.202899)">
                    <mask id="mask-8" fill="white">
                        <use xlink:href="#path-7"></use>
                    </mask>
                    <g id="g"></g>
                    <polygon id="Path" fill="url(#linearGradient-9)" mask="url(#mask-8)" points="0.0084030461 47.1947331 0.0084030461 47.368993 20.7706494 35.3006546 30.4602018 29.6689325 24.0133849 23.2335851"></polygon>
                </g>
                <g id="Clipped" transform="translate(16.231884, 14.202899)">
                    <mask id="mask-11" fill="white">
                        <use xlink:href="#path-10"></use>
                    </mask>
                    <g id="j"></g>
                    <polygon id="Path" fill="url(#linearGradient-12)" mask="url(#mask-11)" points="30.460622 16.7973917 24.0133849 23.2335851 30.4602018 29.6689325 41.5341211 23.2331621"></polygon>
                </g>
                <path d="M165.897685,46.7443586 C165.005417,46.7443586 164.191316,46.5815037 163.454135,46.2562053 C162.716953,45.9304956 162.097473,45.4295936 161.597253,44.7543218 L161.447606,44.7543218 C161.547359,45.545566 161.597253,46.2957195 161.597253,47.0042683 L161.597253,52.5804014 L159.523332,52.5804014 L159.523332,32.9461125 L161.210575,32.9461125 L161.497465,34.8008481 L161.597253,34.8008481 C162.131082,34.0585426 162.752295,33.5235069 163.460337,33.1936847 C164.168448,32.8638626 164.981267,32.6989515 165.897235,32.6989515 C167.714202,32.6989515 169.116634,33.3133584 170.103701,34.5413496 C171.091183,35.7693409 171.585132,37.4924766 171.585132,39.7091119 C171.585132,41.9347947 171.082867,43.6632767 170.079585,44.8966142 C169.075506,46.1286837 167.681805,46.7443586 165.897685,46.7443586 Z M165.597491,34.4422385 C164.197553,34.4422385 163.185124,34.8259343 162.560204,35.5921266 C161.935283,36.3586615 161.6143,37.5788733 161.597253,39.2522479 L161.597253,39.7091462 C161.597253,41.6136087 161.918236,42.9756674 162.560204,43.7961446 C163.202171,44.6166218 164.231647,45.0257808 165.647384,45.0257808 C166.831531,45.0257808 167.75876,44.5524325 168.429832,43.6045023 C169.100072,42.6569832 169.435574,41.3504433 169.435574,39.6844712 C169.435574,37.9954692 169.100038,36.6983537 168.429832,35.7960721 C167.759141,34.892968 166.814484,34.4422385 165.597491,34.4422385 Z M176.389942,46.4967863 L174.315156,46.4967863 L174.315156,27.2585307 L176.389942,27.2585307 L176.389942,46.4967863 Z M188.319973,46.4967863 L187.907102,44.56806 L187.807314,44.56806 C187.123734,45.4176674 186.442683,45.9930056 185.76333,46.2928065 C185.084358,46.5942525 184.236163,46.7443928 183.219992,46.7443928 C181.861667,46.7443928 180.797231,46.3981207 180.025955,45.7059534 C179.25468,45.0138546 178.869666,44.0292888 178.869666,42.7511251 C178.869666,40.0150816 181.082457,38.580643 185.507174,38.4482207 L187.833093,38.3737845 L187.833093,37.5331904 C187.833093,36.4696989 187.601468,35.6842122 187.138702,35.177964 C186.676769,34.6704477 185.935845,34.4171522 184.920125,34.4171522 C183.777937,34.4171522 182.486137,34.7634244 181.045002,35.4555574 L180.407227,33.8854065 C181.082873,33.5226844 181.821718,33.2385452 182.626671,33.0324749 C183.430794,32.8264388 184.236579,32.7232495 185.045275,32.7232495 C186.678501,32.7232495 187.888808,33.0814479 188.676749,33.7986671 C189.463824,34.5158864 189.85757,35.665706 189.85757,37.2486399 L189.85757,46.4964093 L188.320008,46.4964093 L188.320008,46.4967863 L188.319973,46.4967863 Z M183.632448,45.0508328 C184.923451,45.0508328 185.937959,44.7004139 186.675972,44.0000901 C187.412772,43.2996978 187.782402,42.3184905 187.782402,41.0567768 L187.782402,39.832898 L185.706403,39.9188492 C184.05658,39.9776579 182.867825,40.2301651 182.137746,40.6804834 C181.408881,41.129568 181.044205,41.828281 181.044205,42.7762113 C181.044205,43.5176943 181.270806,44.0827512 181.725707,44.4692916 C182.180122,44.8571342 182.815021,45.0508328 183.632448,45.0508328 Z M191.062055,32.9461125 L193.286489,32.9461125 L196.286806,40.6738692 C196.944989,42.4381299 197.353668,43.7113929 197.512496,44.4947891 L197.612319,44.4947891 C197.720803,44.0736695 197.948236,43.3552165 198.293335,42.3361743 C198.639265,41.3179203 199.770989,38.1886879 201.686947,32.9461125 L203.913043,32.9461125 L198.02474,48.3766082 C197.441813,49.9015216 196.760381,50.983485 195.98034,51.6233894 C195.20158,52.2616487 194.244866,52.5804014 193.112692,52.5804014 C192.47904,52.5804014 191.85412,52.510489 191.236684,52.3706641 L191.236684,50.726454 C191.694841,50.8251539 192.207916,50.8749151 192.774661,50.8749151 C194.199962,50.8749151 195.215717,50.0836709 195.824837,48.5008055 L196.586966,46.572422 L191.062055,32.9461125 Z M127.459026,34.2053587 C128.117659,34.7444726 129.493066,35.877054 129.493066,38.0324473 C129.493066,40.1285865 128.289377,41.1225767 127.085689,42.0565245 C126.713148,42.4245587 126.283229,42.8226482 126.283229,43.4469251 C126.283229,44.0691457 126.712732,44.4096947 127.029142,44.6650807 L128.061113,45.4571131 C129.321764,46.5062108 130.466827,47.4705911 130.466827,49.4269053 C130.466827,52.0909802 127.859043,54.7826087 122.931195,54.7826087 C118.77549,54.7826087 116.770589,52.8275282 116.770589,50.7289215 C116.770589,49.7090226 117.284045,48.2643028 118.977144,47.271135 C120.752533,46.1940724 123.161158,46.0538362 124.450047,45.9666856 C124.047605,45.4571474 123.590244,44.9184104 123.590244,44.041215 C123.590244,43.560053 123.734105,43.2762908 123.876753,42.9345424 C123.560308,42.9633299 123.245561,42.9917061 122.958706,42.9917061 C119.922216,42.9917061 118.202993,40.7524521 118.202993,38.5428081 C118.202993,37.2387356 118.805461,35.7923709 120.036175,34.7449182 C121.670163,33.412915 123.618518,33.1854597 125.16734,33.1854597 L131.068949,33.1854597 L129.2349,34.20577 L127.459061,34.20577 L127.459061,34.2053587 L127.459026,34.2053587 Z M125.423774,46.7904185 C125.194712,46.7608086 125.050817,46.7608086 124.765591,46.7608086 C124.507841,46.7608086 122.958221,46.8187947 121.756196,47.2164731 C121.125905,47.4414266 119.291406,48.1216334 119.291406,50.1351114 C119.291406,52.1465331 121.269731,53.5941659 124.336123,53.5941659 C127.085273,53.5941659 128.548375,52.287626 128.548375,50.5319673 C128.548409,49.0835462 127.602506,48.3215007 125.423774,46.7904185 Z M126.255337,41.4042827 C126.91352,40.7516296 126.970101,39.8456468 126.970101,39.3348748 C126.970101,37.2946656 125.73852,34.12023 123.360698,34.12023 C122.614751,34.12023 121.813158,34.4882984 121.35455,35.0558228 C120.868051,35.650901 120.723359,36.415414 120.723359,37.1531957 C120.723359,39.0519351 121.840981,42.1984056 124.306567,42.1984056 C125.022994,42.1984056 125.795101,41.8583022 126.255337,41.4042827 Z M109.418698,46.3368102 C104.87046,46.3368102 102.438586,42.8276175 102.438586,39.6577057 C102.438586,35.9502564 105.499157,32.7824351 109.849483,32.7824351 C114.053004,32.7824351 116.685354,36.0354194 116.685354,39.4602716 C116.685735,42.7980075 114.083356,46.3368102 109.418698,46.3368102 Z M112.994458,44.0449163 C113.682161,43.1385222 113.853844,42.0071746 113.853844,40.9025925 C113.853844,38.4116195 112.652234,33.658431 109.104367,33.658431 C108.160577,33.658431 107.216752,34.0269107 106.530296,34.6224001 C105.414302,35.611421 105.213099,36.8571303 105.213099,38.0752516 C105.213099,40.8746275 106.615081,45.4859348 110.077713,45.4859348 C111.193256,45.4859348 112.337869,44.9492541 112.994458,44.0449163 Z M93.9121109,46.3368102 C89.3630061,46.3368102 86.9307164,42.8276175 86.9307164,39.6577057 C86.9307164,35.9502564 89.9924999,32.7824351 94.3416136,32.7824351 C98.5464164,32.7824351 101.178281,36.0354194 101.178281,39.4602716 C101.178732,42.7980075 98.5759369,46.3368102 93.9121109,46.3368102 Z M97.4886671,44.0449163 C98.1751231,43.1385222 98.3472568,42.0071746 98.3472568,40.9025925 C98.3472568,38.4116195 97.1447808,33.658431 93.5969135,33.658431 C92.6535043,33.658431 91.7088824,34.0269107 91.0228076,34.6224001 C89.9068488,35.611421 89.7068577,36.8571303 89.7068577,38.0752516 C89.7068577,40.8746275 91.1080429,45.4859348 94.5711253,45.4859348 C95.687084,45.4859348 96.8309347,44.9492541 97.4886671,44.0449163 Z M84.7453665,45.8930719 L80.6315854,46.8319547 C78.9626367,47.0885745 77.4675195,47.3143505 75.8863008,47.3143505 C67.9465289,47.3143505 64.9275362,41.5387613 64.9275362,37.0150159 C64.9275362,31.496492 69.2125849,26.3768116 76.5482256,26.3768116 C78.1020027,26.3768116 79.5963576,26.6038214 80.9480301,26.973946 C83.1051068,27.5715259 84.1117495,28.3105071 84.7449507,28.7378297 L82.3566993,30.9852744 L81.350507,31.211873 L82.069394,30.0735341 C81.0918906,29.1354738 79.3069388,27.4004118 75.9141582,27.4004118 C71.3692458,27.4004118 67.945732,30.8158396 67.945732,35.7940159 C67.945732,41.141083 71.85824,46.1768341 78.1273654,46.1768341 C79.970111,46.1768341 80.9172969,45.8075663 81.7808413,45.4653724 L81.7808413,40.8861082 L77.4384147,41.1135292 L79.7385204,39.8888622 L85.8367941,39.8888622 L85.089634,40.5999128 C84.886767,40.7714039 84.8589096,40.8289788 84.8015317,41.0543436 C84.7715954,41.3109633 84.7445696,42.1367525 84.7445696,42.4209259 L84.7445696,45.8931062 L84.7453665,45.8931062 L84.7453665,45.8930719 Z" id="Shape" fill="#F9F9F9" fill-rule="nonzero"></path>
                <path d="M136.975684,45.3170757 C136.026558,45.2287728 135.827889,45.0534406 135.827889,43.9067766 L135.827889,27.284605 C135.833706,27.2213496 135.837446,27.156396 135.843229,27.0952278 C135.959204,26.0678576 136.246352,25.8916763 137.138512,25.3623188 L133.026257,25.3623188 L130.869565,26.419831 L133.067431,26.419831 L133.067431,26.4329915 L133.065769,26.4223782 L133.065769,44.5537651 C133.065769,45.1400454 132.952323,45.2291974 132.29031,46.1092546 L137.379222,46.1092546 L138.443006,45.4648133 C137.95473,45.404105 137.465207,45.3756613 136.975684,45.3170757 Z M148.6735,45.5870788 C148.360622,45.762411 148.046463,45.9674605 147.733516,46.1122264 C146.789793,46.5494955 145.819508,46.6666667 144.961354,46.6666667 C144.050044,46.6666667 142.621369,46.606383 141.16402,45.5284933 C139.138643,44.0689482 138.253513,41.5608417 138.253513,39.374036 C138.253513,34.8540313 141.850516,32.6375437 144.790977,32.6375437 C145.819058,32.6375437 146.876678,32.8994807 147.733101,33.4548054 C149.159317,34.4154886 149.530338,35.6695949 149.729007,36.3407465 L143.021582,39.1125589 L140.822885,39.2874312 C141.53556,42.9914831 143.990689,45.1481115 146.703808,45.1481115 C148.159494,45.1481115 149.216248,44.6242376 150.186567,44.1292319 L148.6735,45.5870788 Z M145.990717,36.8943377 C146.532184,36.6909864 146.817635,36.5152296 146.817635,36.1072533 C146.817635,34.9414852 145.533572,33.5991113 143.99062,33.5991113 C142.847395,33.5991113 140.707741,34.5037915 140.707741,37.6530139 C140.707741,38.1488686 140.765088,38.6735916 140.794592,39.2004019 L145.990717,36.8943377 Z M151.42904,32.8370743 L151.42904,34.7614831 L151.200104,34.7614831 L151.200104,32.8370743 L150.576773,32.8370743 L150.576773,32.6375083 L152.05199,32.6375083 L152.05199,32.8370743 L151.42904,32.8370743 Z M153.997199,34.7614831 L153.997199,32.8192439 L153.98681,32.8192439 L153.406697,34.7614831 L153.227593,34.7614831 L152.642493,32.8192439 L152.634978,32.8192439 L152.634978,34.7614831 L152.427201,34.7614831 L152.427201,32.6375437 L152.783331,32.6375437 L153.312747,34.3543558 L153.320227,34.3543558 L153.841747,32.6375437 L154.202899,32.6375437 L154.202899,34.7614831 L153.997199,34.7614831 Z" id="Shape" fill="#F9F9F9" fill-rule="nonzero"></path>
                <path d="M69.6405011,20.1295866 L68.1949719,20.1295866 C68.1949719,19.9336608 68.0579031,19.3790208 67.7837655,18.4652524 L65.6970051,18.4652524 C65.414073,19.3641089 65.2723791,19.9187143 65.2723791,20.1295866 L63.9130435,20.1295866 C63.9130435,20.0139848 64.2645451,19.0645936 64.9675482,17.2818271 C65.6705164,15.4990261 66.022053,14.516877 66.022053,14.3363118 L67.7295266,14.3363118 C67.7295266,14.5053134 68.0478121,15.4729303 68.6848036,17.2395767 C69.3217951,19.0062232 69.6405011,19.9692836 69.6405011,20.1295866 Z M67.5537408,17.6152739 C67.0387167,16.084698 66.7813973,15.2571219 66.7813973,15.1324073 L66.7090788,15.1324073 C66.7090788,15.248009 66.4425094,16.0755852 65.9097911,17.6152739 L67.5537408,17.6152739 Z M75.4646637,20.1295866 L74.3491928,20.1295866 C74.3491928,20.0078061 73.9350782,19.3657657 73.1071645,18.2030514 C72.2401833,16.9777899 71.746147,16.140238 71.6259315,15.6891874 L71.5536129,15.6891874 C71.6288746,16.3386492 71.6667508,16.9260125 71.6667508,17.4512774 C71.6667508,18.1840318 71.6877736,19.0770892 71.7298192,20.1300354 L70.6185529,20.1300354 C70.6635067,19.2104679 70.6862463,18.2006006 70.6862463,17.1000192 C70.6862463,16.0172838 70.6635417,15.096025 70.6185529,14.3367605 L71.9597739,14.3367605 C71.9597739,14.4941639 72.3314574,15.1217066 73.0752448,16.2189742 C73.8669993,17.3845881 74.3218981,18.1753332 74.4392405,18.5907954 L74.506934,18.5907954 C74.4346505,17.9292868 74.3984563,17.3360899 74.3984563,16.810894 C74.3984563,16.0073425 74.3773984,15.1821826 74.3353878,14.3367605 L75.4647338,14.3367605 C75.4222326,15.0724145 75.4016303,15.9936388 75.4016303,17.1000192 C75.4011748,18.2146496 75.4221976,19.2245169 75.4646637,20.1295866 Z M82.01075,17.0325014 C82.01075,17.8749895 81.7366475,18.610678 81.1887577,19.2394633 C80.6404825,19.8686628 79.872694,20.1826412 78.8850769,20.1826412 C78.439393,20.1826412 77.8251062,20.1647953 77.0422163,20.1291724 C77.0812837,19.23325 77.1010802,18.222934 77.1010802,17.0991908 C77.1010802,16.0197346 77.0813187,15.0985103 77.0422163,14.3358975 L77.8327094,14.3358975 C77.962175,14.3358975 78.154744,14.3313411 78.410837,14.3226425 C78.6664395,14.3139439 78.8337812,14.3093875 78.9119861,14.3093875 C79.998901,14.3093875 80.7868364,14.5765591 81.2766331,15.1104881 C81.7660444,15.6444172 82.01075,16.2848006 82.01075,17.0325014 Z M80.7779367,17.2238018 C80.7779367,16.6542499 80.6093337,16.1745837 80.2721276,15.7839746 C79.9349215,15.394194 79.4198624,15.1991311 78.7273706,15.1991311 C78.5979051,15.1991311 78.4204374,15.2123862 78.1942319,15.2393104 C78.2240843,15.8328525 78.2392207,16.452525 78.2392207,17.0991563 C78.2392207,17.8083002 78.2543572,18.5112308 78.2841745,19.2083623 C78.4774069,19.2467151 78.6740168,19.26614 78.8711317,19.266353 C79.5186346,19.266353 79.997955,19.0679764 80.3095482,18.671948 C80.6211415,18.2759541 80.7779367,17.7933537 80.7779367,17.2238018 Z M88.0472431,20.1295866 L86.7101917,20.1295866 C86.3607924,19.07954 86.0929966,18.4312864 85.906314,18.18524 C85.7196313,17.9387793 85.4185845,17.8157561 85.0031735,17.8157561 C84.8282637,17.8157561 84.6613074,17.817413 84.5019895,17.8203125 C84.5019895,18.5829253 84.515409,19.3525107 84.5427737,20.1295866 L83.2872908,20.1295866 C83.3263582,19.2336297 83.3461547,18.2233482 83.3461547,17.0995705 C83.3461547,16.0201488 83.3263933,15.09889 83.2872908,14.3363118 L84.0684638,14.3363118 C84.158862,14.3363118 84.347682,14.3317554 84.6352742,14.3230567 C84.9228664,14.3143581 85.1885948,14.3097672 85.4324596,14.3097672 C86.8144999,14.3097672 87.5057303,14.77535 87.5057303,15.7069643 C87.5057303,16.4455178 87.1113421,16.9599785 86.3225659,17.2511749 L86.3225659,17.3178642 C86.6265559,17.4007081 86.8931252,17.6347422 87.1218535,18.0183095 C87.3501264,18.402291 87.6587414,19.1060501 88.0472431,20.1295866 Z M86.3536446,16.0358201 C86.3536446,15.4455572 85.968086,15.1502532 85.1973894,15.1502532 C84.9144222,15.1502532 84.6642156,15.1709642 84.4477156,15.2123862 C84.4809316,15.6721699 84.4973294,16.2715456 84.4973294,17.0100991 C84.6630243,17.0163124 84.8030363,17.0187977 84.9173654,17.0187977 C85.8747447,17.0192119 86.3536446,16.6915642 86.3536446,16.0358201 Z M94.5213964,17.126046 C94.5213964,18.0365352 94.2384292,18.7916229 93.6721094,19.3909986 C93.1057546,19.9899946 92.4056946,20.2898551 91.5719295,20.2898551 C90.7768814,20.2898551 90.1112638,20.0148133 89.5756023,19.4643155 C89.0395203,18.9142319 88.7716896,18.2146496 88.7716896,17.3667076 C88.7716896,16.456253 89.0546568,15.7011307 89.6210116,15.101755 C90.186946,14.5027935 90.8870059,14.2028986 91.7211565,14.2028986 C92.5162396,14.2028986 93.1814367,14.4771119 93.7175187,15.0259528 C94.2536006,15.5748283 94.5213964,16.2744451 94.5213964,17.126046 Z M93.2751985,17.2549028 C93.2751985,16.6348161 93.1141287,16.1319536 92.7920941,15.7463152 C92.469604,15.3606768 92.0722726,15.1680647 91.5996796,15.1680647 C91.1598822,15.1680647 90.7865168,15.3623336 90.4795836,15.7508716 C90.1726504,16.1394095 90.0183429,16.6302942 90.0183429,17.2238364 C90.0183429,17.8406093 90.1802187,18.3426434 90.5039351,18.7299732 C90.8276865,19.1172685 91.224212,19.3107091 91.6942823,19.3107091 C92.1336593,19.3107091 92.5074451,19.1156116 92.8143783,18.7253823 C93.1213115,18.3356017 93.2751985,17.8451312 93.2751985,17.2549028 Z M97.0752838,20.1295866 L95.7970962,20.1295866 C95.8361987,19.2100192 95.8559601,18.2001519 95.8559601,17.0995705 C95.8559601,16.0168005 95.8362337,15.0955762 95.7970962,14.3363118 L97.0752838,14.3363118 C97.0361814,15.0839781 97.0164199,16.0047882 97.0164199,17.0995705 C97.0164199,18.2175491 97.0361814,19.2278306 97.0752838,20.1295866 Z M103.621791,17.0325014 C103.621791,17.8749895 103.347653,18.610678 102.799798,19.2394633 C102.251558,19.8686628 101.48377,20.1826412 100.496117,20.1826412 C100.050434,20.1826412 99.4361467,20.1647953 98.6532218,20.1291724 C98.6923593,19.23325 98.7121207,18.222934 98.7121207,17.0991908 C98.7121207,16.0197346 98.6923943,15.0985103 98.6532218,14.3358975 L99.4437149,14.3358975 C99.5732155,14.3358975 99.7657846,14.3313411 100.021843,14.3226425 C100.277515,14.3139439 100.444822,14.3093875 100.523062,14.3093875 C101.609942,14.3093875 102.397877,14.5765591 102.887674,15.1104881 C103.377085,15.6444172 103.621791,16.2848006 103.621791,17.0325014 Z M102.389012,17.2238018 C102.389012,16.6542499 102.220409,16.1745837 101.883168,15.7839746 C101.545962,15.394194 101.030938,15.1991311 100.338411,15.1991311 C100.208911,15.1991311 100.031478,15.2123862 99.8052724,15.2393104 C99.8351249,15.8328525 99.8502262,16.452525 99.8502262,17.0991563 C99.8502262,17.8083002 99.8653977,18.5112308 99.8952151,19.2083623 C100.088448,19.2467135 100.285057,19.2661384 100.482172,19.266353 C101.12964,19.266353 101.608996,19.0679764 101.920554,18.671948 C102.232182,18.2759541 102.389012,17.7933537 102.389012,17.2238018 Z M112.306739,20.1295866 L110.86121,20.1295866 C110.86121,19.9336608 110.724141,19.3790208 110.449583,18.4652524 L108.362857,18.4652524 C108.07989,19.3641089 107.938161,19.9187143 107.938161,20.1295866 L106.579281,20.1295866 C106.579281,20.0139848 106.930748,19.0645936 107.633786,17.2818271 C108.336789,15.4990261 108.688291,14.516877 108.688291,14.3363118 L110.395764,14.3363118 C110.395764,14.5053134 110.71447,15.4729303 111.351041,17.2395767 C111.987612,19.0062232 112.306739,19.9692836 112.306739,20.1295866 Z M110.220014,17.6152739 C109.704954,16.084698 109.44718,15.2571219 109.44718,15.1324073 L109.374861,15.1324073 C109.374861,15.248009 109.108712,16.0755852 108.576029,17.6152739 L110.220014,17.6152739 Z M117.575058,15.8531838 C117.575058,16.5623277 117.307613,17.0859012 116.773213,17.4239044 C116.238812,17.7619076 115.583321,17.9312889 114.806282,17.9312889 C114.664623,17.9312889 114.564134,17.9283893 114.503589,17.9225903 C114.503589,18.480544 114.519951,19.2158183 114.553203,20.1295866 L113.28381,20.1295866 C113.322877,19.2725663 113.342673,18.2622503 113.342673,17.0995705 C113.342673,16.0317125 113.322947,15.1104881 113.28381,14.3363118 L114.069643,14.3363118 C114.181064,14.3363118 114.39462,14.3317554 114.710839,14.3230567 C115.027057,14.3143581 115.300774,14.3097672 115.532831,14.3097672 C116.104652,14.3097672 116.588177,14.4373468 116.982565,14.6925061 C117.376988,14.9476998 117.575058,15.3341667 117.575058,15.8531838 Z M116.409973,16.0979876 C116.409973,15.4633687 115.982334,15.1456968 115.127161,15.1456968 C114.913148,15.1456968 114.687363,15.1680301 114.449805,15.2123862 C114.483021,15.7732394 114.499419,16.4078238 114.499419,17.1169677 C114.574646,17.123181 114.662136,17.1256663 114.761364,17.1256663 C115.860437,17.126046 116.409973,16.783521 116.409973,16.0979876 Z M122.992219,15.8531838 C122.992219,16.5623277 122.724808,17.0859012 122.190829,17.4239044 C121.656429,17.7619076 121.000517,17.9312889 120.223548,17.9312889 C120.081819,17.9312889 119.981365,17.9283893 119.920784,17.9225903 C119.920784,18.480544 119.937217,19.2158183 119.970398,20.1295866 L118.70104,20.1295866 C118.740143,19.2725663 118.759939,18.2622503 118.759939,17.0995705 C118.759939,16.0317125 118.740178,15.1104881 118.70104,14.3363118 L119.486873,14.3363118 C119.598329,14.3363118 119.811886,14.3317554 120.12807,14.3230567 C120.444253,14.3143581 120.71797,14.3097672 120.950062,14.3097672 C121.521848,14.3097672 122.005408,14.4373468 122.399796,14.6925061 C122.794149,14.9476998 122.992219,15.3341667 122.992219,15.8531838 Z M121.827134,16.0979876 C121.827134,15.4633687 121.39953,15.1456968 120.544356,15.1456968 C120.330344,15.1456968 120.104524,15.1680301 119.867001,15.2123862 C119.900182,15.7732394 119.916615,16.4078238 119.916615,17.1169677 C119.991842,17.123181 120.079332,17.1256663 120.178559,17.1256663 C121.277597,17.126046 121.827134,16.783521 121.827134,16.0979876 Z M131.849134,17.126046 C131.849134,18.0365352 131.566167,18.7916229 130.999812,19.3909986 C130.433492,19.9903743 129.733397,20.2898551 128.899632,20.2898551 C128.104584,20.2898551 127.438966,20.0148133 126.90334,19.4643155 C126.367643,18.9142319 126.099427,18.2146496 126.099427,17.3667076 C126.099427,16.456253 126.382394,15.7011307 126.948714,15.101755 C127.515069,14.5023793 128.215164,14.2028986 129.048894,14.2028986 C129.843977,14.2028986 130.509559,14.4771119 131.045221,15.0259528 C131.580882,15.5748283 131.849134,16.2744451 131.849134,17.126046 Z M130.60248,17.2549028 C130.60248,16.6348161 130.44141,16.1319536 130.119376,15.7463152 C129.797341,15.3606768 129.399554,15.1680647 128.926996,15.1680647 C128.487164,15.1680647 128.113799,15.3623336 127.806865,15.7508716 C127.499932,16.1394095 127.346045,16.6302942 127.346045,17.2238364 C127.346045,17.8406093 127.507956,18.3426434 127.831672,18.7299732 C128.155389,19.1172685 128.551914,19.3107091 129.021564,19.3107091 C129.461362,19.3107091 129.834727,19.1156116 130.14166,18.7254168 C130.449014,18.3356017 130.60248,17.8451312 130.60248,17.2549028 Z M137.970979,20.1295866 L136.855509,20.1295866 C136.855509,20.0078061 136.441744,19.3657657 135.61348,18.2030514 C134.746499,16.9777899 134.252428,16.140238 134.132212,15.6891874 L134.059894,15.6891874 C134.135155,16.3386492 134.173031,16.9260125 134.173031,17.4512774 C134.173031,18.1840318 134.194054,19.0770892 134.236135,20.1300354 L133.124834,20.1300354 C133.169822,19.2104679 133.192527,18.2006006 133.192527,17.1000192 C133.192527,16.0172838 133.169892,15.096025 133.124834,14.3367605 L134.46609,14.3367605 C134.46609,14.4941639 134.838194,15.1217066 135.581561,16.2189742 C136.3737,17.3845881 136.828214,18.1753332 136.945556,18.5907954 L137.01325,18.5907954 C136.940931,17.9292868 136.904772,17.3360899 136.904772,16.810894 C136.904772,16.0073425 136.883749,15.1821826 136.841668,14.3367605 L137.971014,14.3367605 C137.928548,15.0724145 137.907946,15.9936388 137.907946,17.1000192 C137.907911,18.2146496 137.928934,19.2245169 137.970979,20.1295866 Z" id="Shape" fill="#F9F9FA" fill-rule="nonzero"></path>
            </g>
        </g>
    </g>
</svg>