<?xml version="1.0" encoding="utf-8"?>
<!-- Generator: Adobe Illustrator 22.0.1, SVG Export Plug-In . SVG Version: 6.00 Build 0)  -->
<svg version="1.1" id="Layer_2" xmlns="http://www.w3.org/2000/svg" xmlns:xlink="http://www.w3.org/1999/xlink" x="0px" y="0px"
	 viewBox="0 0 213 70" style="enable-background:new 0 0 213 70;" xml:space="preserve">
<style type="text/css">
	.st0{filter:url(#Adobe_OpacityMaskFilter);}
	.st1{fill:#FFFFFF;}
	.st2{mask:url(#mask-2_2_);fill:url(#Path_5_);}
	.st3{filter:url(#Adobe_OpacityMaskFilter_1_);}
	.st4{mask:url(#mask-5_2_);fill:url(#Path_6_);}
	.st5{filter:url(#Adobe_OpacityMaskFilter_2_);}
	.st6{mask:url(#mask-8_2_);fill:url(#Path_7_);}
	.st7{filter:url(#Adobe_OpacityMaskFilter_3_);}
	.st8{mask:url(#mask-11_2_);fill:url(#Path_8_);}
	.st9{fill:#F9F9F9;}
	.st10{fill:#F9F9FA;}
</style>
<g id="googlePlayButton" transform="translate(458.000000, 628.000000)">
	<path id="Path" d="M-245-567.5c0,5.2-4.2,9.5-9.4,9.5h-194.2c-5.2,0-9.4-4.2-9.4-9.5v-51.1c0-5.2,4.2-9.5,9.4-9.5h194.2
		c5.2,0,9.4,4.2,9.4,9.5L-245-567.5L-245-567.5z"/>
	<g id="Clipped" transform="translate(16.231884, 14.202899)">
		<g id="a">
		</g>
		<defs>
			<filter id="Adobe_OpacityMaskFilter" filterUnits="userSpaceOnUse" x="-458" y="-628.7" width="24" height="47.9">
				<feColorMatrix  type="matrix" values="1 0 0 0 0  0 1 0 0 0  0 0 1 0 0  0 0 0 1 0"/>
			</filter>
		</defs>
		<mask maskUnits="userSpaceOnUse" x="-458" y="-628.7" width="24" height="47.9" id="mask-2_2_">
			<g class="st0">
				<path id="path-1_2_" class="st1" d="M-427.5-611.2l-9.7-5.6c0,0-17.7-10.3-18.7-10.9c-1-0.6-2.1-0.2-2.1,1v44.3
					c0,0.9,0.7,1.4,1.6,0.8c0.9-0.5,19.1-11.1,19.1-11.1l9.7-5.6c0,0,8.2-4.8,9.3-5.4c1.1-0.6,1-1.5,0.1-2
					C-419.1-606.3-427.5-611.2-427.5-611.2z"/>
			</g>
		</mask>
		
			<linearGradient id="Path_5_" gradientUnits="userSpaceOnUse" x1="-1177.1549" y1="-23.3372" x2="-1177.1549" y2="-24.3372" gradientTransform="matrix(24.005 0 0 -47.9227 27811.5938 -1747.11)">
			<stop  offset="0" style="stop-color:#257CB0"/>
			<stop  offset="0.286" style="stop-color:#4A93B5"/>
			<stop  offset="0.767" style="stop-color:#78BCBB"/>
			<stop  offset="1" style="stop-color:#89CFBD"/>
		</linearGradient>
		<polygon id="Path_1_" class="st2" points="-458,-628.7 -458,-580.8 -434,-604.8 		"/>
	</g>
	<g id="Clipped_1_" transform="translate(16.231884, 14.202899)">
		<g id="d">
		</g>
		<defs>
			<filter id="Adobe_OpacityMaskFilter_1_" filterUnits="userSpaceOnUse" x="-458" y="-628.9" width="30.5" height="24.1">
				<feColorMatrix  type="matrix" values="1 0 0 0 0  0 1 0 0 0  0 0 1 0 0  0 0 0 1 0"/>
			</filter>
		</defs>
		<mask maskUnits="userSpaceOnUse" x="-458" y="-628.9" width="30.5" height="24.1" id="mask-5_2_">
			<g class="st3">
				<path id="path-4_2_" class="st1" d="M-427.5-611.2l-9.7-5.6c0,0-17.7-10.3-18.7-10.9c-1-0.6-2.1-0.2-2.1,1v44.3
					c0,0.9,0.7,1.4,1.6,0.8c0.9-0.5,19.1-11.1,19.1-11.1l9.7-5.6c0,0,8.2-4.8,9.3-5.4c1.1-0.6,1-1.5,0.1-2
					C-419.1-606.3-427.5-611.2-427.5-611.2z"/>
			</g>
		</mask>
		
			<linearGradient id="Path_6_" gradientUnits="userSpaceOnUse" x1="-1184.1285" y1="-35.3537" x2="-1183.1285" y2="-35.3537" gradientTransform="matrix(30.4522 0 0 -24.1358 35601.3516 -1470.1261)">
			<stop  offset="0" style="stop-color:#52C1AD"/>
			<stop  offset="1" style="stop-color:#DEE89A"/>
		</linearGradient>
		<polygon id="Path_2_" class="st4" points="-427.5,-611.2 -437.2,-616.8 -458,-628.9 -458,-628.7 -434,-604.8 		"/>
	</g>
	<g id="Clipped_2_" transform="translate(16.231884, 14.202899)">
		<g id="g">
		</g>
		<defs>
			<filter id="Adobe_OpacityMaskFilter_2_" filterUnits="userSpaceOnUse" x="-458" y="-604.8" width="30.5" height="24.1">
				<feColorMatrix  type="matrix" values="1 0 0 0 0  0 1 0 0 0  0 0 1 0 0  0 0 0 1 0"/>
			</filter>
		</defs>
		<mask maskUnits="userSpaceOnUse" x="-458" y="-604.8" width="30.5" height="24.1" id="mask-8_2_">
			<g class="st5">
				<path id="path-7_2_" class="st1" d="M-427.5-611.2l-9.7-5.6c0,0-17.7-10.3-18.7-10.9c-1-0.6-2.1-0.2-2.1,1v44.3
					c0,0.9,0.7,1.4,1.6,0.8c0.9-0.5,19.1-11.1,19.1-11.1l9.7-5.6c0,0,8.2-4.8,9.3-5.4c1.1-0.6,1-1.5,0.1-2
					C-419.1-606.3-427.5-611.2-427.5-611.2z"/>
			</g>
		</mask>
		
			<linearGradient id="Path_7_" gradientUnits="userSpaceOnUse" x1="-1183.6282" y1="-34.8541" x2="-1183.6282" y2="-35.8541" gradientTransform="matrix(30.4518 0 0 -24.1354 35600.8398 -1445.9854)">
			<stop  offset="0" style="stop-color:#EC413D"/>
			<stop  offset="0.167" style="stop-color:#DA4452"/>
			<stop  offset="0.575" style="stop-color:#B0487A"/>
			<stop  offset="0.862" style="stop-color:#954A92"/>
			<stop  offset="1" style="stop-color:#8A4A9D"/>
		</linearGradient>
		<polygon id="Path_3_" class="st6" points="-458,-580.8 -458,-580.6 -437.2,-592.7 -427.5,-598.3 -434,-604.8 		"/>
	</g>
	<g id="Clipped_3_" transform="translate(16.231884, 14.202899)">
		<g id="j">
		</g>
		<defs>
			<filter id="Adobe_OpacityMaskFilter_3_" filterUnits="userSpaceOnUse" x="-434" y="-611.2" width="17.5" height="12.9">
				<feColorMatrix  type="matrix" values="1 0 0 0 0  0 1 0 0 0  0 0 1 0 0  0 0 0 1 0"/>
			</filter>
		</defs>
		<mask maskUnits="userSpaceOnUse" x="-434" y="-611.2" width="17.5" height="12.9" id="mask-11_2_">
			<g class="st7">
				<path id="path-10_2_" class="st1" d="M-427.5-611.2l-9.7-5.6c0,0-17.7-10.3-18.7-10.9c-1-0.6-2.1-0.2-2.1,1v44.3
					c0,0.9,0.7,1.4,1.6,0.8c0.9-0.5,19.1-11.1,19.1-11.1l9.7-5.6c0,0,8.2-4.8,9.3-5.4c1.1-0.6,1-1.5,0.1-2
					C-419.1-606.3-427.5-611.2-427.5-611.2z"/>
			</g>
		</mask>
		
			<linearGradient id="Path_8_" gradientUnits="userSpaceOnUse" x1="-1165.8386" y1="-55.1586" x2="-1165.8386" y2="-56.1586" gradientTransform="matrix(17.5207 0 0 -12.8715 20001.127 -1321.1781)">
			<stop  offset="0" style="stop-color:#F58879"/>
			<stop  offset="0.119" style="stop-color:#F69079"/>
			<stop  offset="0.713" style="stop-color:#FCB877"/>
			<stop  offset="1" style="stop-color:#FEC874"/>
		</linearGradient>
		<polygon id="Path_4_" class="st8" points="-427.5,-611.2 -434,-604.8 -427.5,-598.3 -416.5,-604.8 		"/>
	</g>
	<path id="Shape" class="st9" d="M-292.1-581.3c-0.9,0-1.7-0.2-2.4-0.5c-0.7-0.3-1.4-0.8-1.9-1.5h-0.1c0.1,0.8,0.1,1.5,0.1,2.2v5.6
		h-2.1v-19.6h1.7l0.3,1.9h0.1c0.5-0.7,1.2-1.3,1.9-1.6c0.7-0.3,1.5-0.5,2.4-0.5c1.8,0,3.2,0.6,4.2,1.8c1,1.2,1.5,3,1.5,5.2
		c0,2.2-0.5,4-1.5,5.2C-288.9-581.9-290.3-581.3-292.1-581.3z M-292.4-593.6c-1.4,0-2.4,0.4-3,1.1c-0.6,0.8-0.9,2-1,3.7v0.5
		c0,1.9,0.3,3.3,1,4.1c0.6,0.8,1.7,1.2,3.1,1.2c1.2,0,2.1-0.5,2.8-1.4c0.7-0.9,1-2.3,1-3.9c0-1.7-0.3-3-1-3.9
		C-290.2-593.1-291.2-593.6-292.4-593.6z M-281.6-581.5h-2.1v-19.2h2.1V-581.5z M-269.7-581.5l-0.4-1.9h-0.1c-0.7,0.8-1.4,1.4-2,1.7
		c-0.7,0.3-1.5,0.5-2.5,0.5c-1.4,0-2.4-0.3-3.2-1c-0.8-0.7-1.2-1.7-1.2-3c0-2.7,2.2-4.2,6.6-4.3l2.3-0.1v-0.8c0-1.1-0.2-1.8-0.7-2.4
		c-0.5-0.5-1.2-0.8-2.2-0.8c-1.1,0-2.4,0.3-3.9,1l-0.6-1.6c0.7-0.4,1.4-0.6,2.2-0.9c0.8-0.2,1.6-0.3,2.4-0.3c1.6,0,2.8,0.4,3.6,1.1
		c0.8,0.7,1.2,1.9,1.2,3.4v9.2L-269.7-581.5L-269.7-581.5L-269.7-581.5z M-274.4-582.9c1.3,0,2.3-0.4,3-1.1c0.7-0.7,1.1-1.7,1.1-2.9
		v-1.2l-2.1,0.1c-1.6,0.1-2.8,0.3-3.6,0.8c-0.7,0.4-1.1,1.1-1.1,2.1c0,0.7,0.2,1.3,0.7,1.7C-275.8-583.1-275.2-582.9-274.4-582.9z
		 M-266.9-595.1h2.2l3,7.7c0.7,1.8,1.1,3,1.2,3.8h0.1c0.1-0.4,0.3-1.1,0.7-2.2c0.3-1,1.5-4.1,3.4-9.4h2.2l-5.9,15.4
		c-0.6,1.5-1.3,2.6-2,3.2c-0.8,0.6-1.7,1-2.9,1c-0.6,0-1.3-0.1-1.9-0.2v-1.6c0.5,0.1,1,0.1,1.5,0.1c1.4,0,2.4-0.8,3.1-2.4l0.8-1.9
		L-266.9-595.1z M-330.5-593.8c0.7,0.5,2,1.7,2,3.8c0,2.1-1.2,3.1-2.4,4c-0.4,0.4-0.8,0.8-0.8,1.4c0,0.6,0.4,1,0.7,1.2l1,0.8
		c1.3,1,2.4,2,2.4,4c0,2.7-2.6,5.4-7.5,5.4c-4.2,0-6.2-2-6.2-4.1c0-1,0.5-2.5,2.2-3.5c1.8-1.1,4.2-1.2,5.5-1.3
		c-0.4-0.5-0.9-1-0.9-1.9c0-0.5,0.1-0.8,0.3-1.1c-0.3,0-0.6,0.1-0.9,0.1c-3,0-4.8-2.2-4.8-4.4c0-1.3,0.6-2.8,1.8-3.8
		c1.6-1.3,3.6-1.6,5.1-1.6h5.9l-1.8,1L-330.5-593.8L-330.5-593.8L-330.5-593.8z M-332.6-581.2c-0.2,0-0.4,0-0.7,0
		c-0.3,0-1.8,0.1-3,0.5c-0.6,0.2-2.5,0.9-2.5,2.9c0,2,2,3.5,5,3.5c2.7,0,4.2-1.3,4.2-3.1C-329.5-578.9-330.4-579.7-332.6-581.2z
		 M-331.7-586.6c0.7-0.7,0.7-1.6,0.7-2.1c0-2-1.2-5.2-3.6-5.2c-0.7,0-1.5,0.4-2,0.9c-0.5,0.6-0.6,1.4-0.6,2.1c0,1.9,1.1,5,3.6,5
		C-333-585.8-332.2-586.1-331.7-586.6z M-348.6-581.7c-4.5,0-7-3.5-7-6.7c0-3.7,3.1-6.9,7.4-6.9c4.2,0,6.8,3.3,6.8,6.7
		C-341.3-585.2-343.9-581.7-348.6-581.7z M-345-584c0.7-0.9,0.9-2,0.9-3.1c0-2.5-1.2-7.2-4.7-7.2c-0.9,0-1.9,0.4-2.6,1
		c-1.1,1-1.3,2.2-1.3,3.5c0,2.8,1.4,7.4,4.9,7.4C-346.8-582.5-345.7-583.1-345-584z M-364.1-581.7c-4.5,0-7-3.5-7-6.7
		c0-3.7,3.1-6.9,7.4-6.9c4.2,0,6.8,3.3,6.8,6.7C-356.8-585.2-359.4-581.7-364.1-581.7z M-360.5-584c0.7-0.9,0.9-2,0.9-3.1
		c0-2.5-1.2-7.2-4.8-7.2c-0.9,0-1.9,0.4-2.6,1c-1.1,1-1.3,2.2-1.3,3.5c0,2.8,1.4,7.4,4.9,7.4C-362.3-582.5-361.2-583.1-360.5-584z
		 M-373.3-582.1l-4.1,0.9c-1.7,0.3-3.2,0.5-4.7,0.5c-7.9,0-11-5.8-11-10.3c0-5.5,4.3-10.6,11.6-10.6c1.6,0,3,0.2,4.4,0.6
		c2.2,0.6,3.2,1.3,3.8,1.8l-2.4,2.2l-1,0.2l0.7-1.1c-1-0.9-2.8-2.7-6.2-2.7c-4.5,0-8,3.4-8,8.4c0,5.3,3.9,10.4,10.2,10.4
		c1.8,0,2.8-0.4,3.7-0.7v-4.6l-4.3,0.2l2.3-1.2h6.1l-0.7,0.7c-0.2,0.2-0.2,0.2-0.3,0.5c0,0.3-0.1,1.1-0.1,1.4L-373.3-582.1
		L-373.3-582.1L-373.3-582.1z"/>
	<path id="Shape_1_" class="st9" d="M-321-582.7c-0.9-0.1-1.1-0.3-1.1-1.4v-16.6c0-0.1,0-0.1,0-0.2c0.1-1,0.4-1.2,1.3-1.7h-4.1
		l-2.2,1.1h2.2v0l0,0v18.1c0,0.6-0.1,0.7-0.8,1.6h5.1l1.1-0.6C-320-582.6-320.5-582.6-321-582.7z M-309.3-582.4
		c-0.3,0.2-0.6,0.4-0.9,0.5c-0.9,0.4-1.9,0.6-2.8,0.6c-0.9,0-2.3-0.1-3.8-1.1c-2-1.5-2.9-4-2.9-6.2c0-4.5,3.6-6.7,6.5-6.7
		c1,0,2.1,0.3,2.9,0.8c1.4,1,1.8,2.2,2,2.9l-6.7,2.8l-2.2,0.2c0.7,3.7,3.2,5.9,5.9,5.9c1.5,0,2.5-0.5,3.5-1L-309.3-582.4z
		 M-312-591.1c0.5-0.2,0.8-0.4,0.8-0.8c0-1.2-1.3-2.5-2.8-2.5c-1.1,0-3.3,0.9-3.3,4.1c0,0.5,0.1,1,0.1,1.5L-312-591.1z
		 M-306.6-595.2v1.9h-0.2v-1.9h-0.6v-0.2h1.5v0.2H-306.6z M-304-593.2v-1.9h0l-0.6,1.9h-0.2l-0.6-1.9h0v1.9h-0.2v-2.1h0.4l0.5,1.7h0
		l0.5-1.7h0.4v2.1H-304z"/>
	<path id="Shape_2_" class="st10" d="M-388.4-607.9h-1.4c0-0.2-0.1-0.8-0.4-1.7h-2.1c-0.3,0.9-0.4,1.5-0.4,1.7h-1.4
		c0-0.1,0.4-1.1,1.1-2.8s1.1-2.8,1.1-2.9h1.7c0,0.2,0.3,1.1,1,2.9C-388.7-609-388.4-608-388.4-607.9z M-390.4-610.4
		c-0.5-1.5-0.8-2.4-0.8-2.5h-0.1c0,0.1-0.3,0.9-0.8,2.5H-390.4z M-382.5-607.9h-1.1c0-0.1-0.4-0.8-1.2-1.9c-0.9-1.2-1.4-2.1-1.5-2.5
		h-0.1c0.1,0.6,0.1,1.2,0.1,1.8c0,0.7,0,1.6,0.1,2.7h-1.1c0-0.9,0.1-1.9,0.1-3c0-1.1,0-2-0.1-2.8h1.3c0,0.2,0.4,0.8,1.1,1.9
		c0.8,1.2,1.2,2,1.4,2.4h0.1c-0.1-0.7-0.1-1.3-0.1-1.8c0-0.8,0-1.6-0.1-2.5h1.1c0,0.7-0.1,1.7-0.1,2.8
		C-382.6-609.8-382.6-608.8-382.5-607.9z M-376-611c0,0.8-0.3,1.6-0.8,2.2c-0.5,0.6-1.3,0.9-2.3,0.9c-0.4,0-1.1,0-1.8-0.1
		c0-0.9,0.1-1.9,0.1-3c0-1.1,0-2-0.1-2.8h0.8c0.1,0,0.3,0,0.6,0c0.3,0,0.4,0,0.5,0c1.1,0,1.9,0.3,2.4,0.8
		C-376.2-612.4-376-611.7-376-611z M-377.2-610.8c0-0.6-0.2-1-0.5-1.4c-0.3-0.4-0.9-0.6-1.5-0.6c-0.1,0-0.3,0-0.5,0
		c0,0.6,0,1.2,0,1.9c0,0.7,0,1.4,0,2.1c0.2,0,0.4,0.1,0.6,0.1c0.6,0,1.1-0.2,1.4-0.6C-377.4-609.7-377.2-610.2-377.2-610.8z
		 M-370-607.9h-1.3c-0.3-1.1-0.6-1.7-0.8-1.9c-0.2-0.2-0.5-0.4-0.9-0.4c-0.2,0-0.3,0-0.5,0c0,0.8,0,1.5,0,2.3h-1.3
		c0-0.9,0.1-1.9,0.1-3c0-1.1,0-2-0.1-2.8h0.8c0.1,0,0.3,0,0.6,0c0.3,0,0.6,0,0.8,0c1.4,0,2.1,0.5,2.1,1.4c0,0.7-0.4,1.3-1.2,1.5v0.1
		c0.3,0.1,0.6,0.3,0.8,0.7C-370.6-609.6-370.3-608.9-370-607.9z M-371.6-612c0-0.6-0.4-0.9-1.2-0.9c-0.3,0-0.5,0-0.7,0.1
		c0,0.5,0,1.1,0,1.8c0.2,0,0.3,0,0.4,0C-372.1-611-371.6-611.3-371.6-612z M-363.5-610.9c0,0.9-0.3,1.7-0.8,2.3
		c-0.6,0.6-1.3,0.9-2.1,0.9c-0.8,0-1.5-0.3-2-0.8c-0.5-0.6-0.8-1.2-0.8-2.1c0-0.9,0.3-1.7,0.8-2.3c0.6-0.6,1.3-0.9,2.1-0.9
		c0.8,0,1.5,0.3,2,0.8C-363.7-612.4-363.5-611.7-363.5-610.9z M-364.7-610.7c0-0.6-0.2-1.1-0.5-1.5c-0.3-0.4-0.7-0.6-1.2-0.6
		c-0.4,0-0.8,0.2-1.1,0.6s-0.5,0.9-0.5,1.5c0,0.6,0.2,1.1,0.5,1.5c0.3,0.4,0.7,0.6,1.2,0.6c0.4,0,0.8-0.2,1.1-0.6
		C-364.9-609.7-364.7-610.2-364.7-610.7z M-360.9-607.9h-1.3c0-0.9,0.1-1.9,0.1-3c0-1.1,0-2-0.1-2.8h1.3c0,0.7-0.1,1.7-0.1,2.8
		C-361-609.8-361-608.8-360.9-607.9z M-354.4-611c0,0.8-0.3,1.6-0.8,2.2c-0.5,0.6-1.3,0.9-2.3,0.9c-0.4,0-1.1,0-1.8-0.1
		c0-0.9,0.1-1.9,0.1-3c0-1.1,0-2-0.1-2.8h0.8c0.1,0,0.3,0,0.6,0c0.3,0,0.4,0,0.5,0c1.1,0,1.9,0.3,2.4,0.8
		C-354.6-612.4-354.4-611.7-354.4-611z M-355.6-610.8c0-0.6-0.2-1-0.5-1.4c-0.3-0.4-0.9-0.6-1.5-0.6c-0.1,0-0.3,0-0.5,0
		c0,0.6,0,1.2,0,1.9c0,0.7,0,1.4,0,2.1c0.2,0,0.4,0.1,0.6,0.1c0.6,0,1.1-0.2,1.4-0.6C-355.8-609.7-355.6-610.2-355.6-610.8z
		 M-345.7-607.9h-1.4c0-0.2-0.1-0.8-0.4-1.7h-2.1c-0.3,0.9-0.4,1.5-0.4,1.7h-1.4c0-0.1,0.4-1.1,1.1-2.8c0.7-1.8,1.1-2.8,1.1-2.9h1.7
		c0,0.2,0.3,1.1,1,2.9S-345.7-608-345.7-607.9z M-347.8-610.4c-0.5-1.5-0.8-2.4-0.8-2.5h-0.1c0,0.1-0.3,0.9-0.8,2.5H-347.8z
		 M-340.4-612.1c0,0.7-0.3,1.2-0.8,1.6s-1.2,0.5-2,0.5c-0.1,0-0.2,0-0.3,0c0,0.6,0,1.3,0,2.2h-1.3c0-0.9,0.1-1.9,0.1-3
		c0-1.1,0-2-0.1-2.8h0.8c0.1,0,0.3,0,0.6,0c0.3,0,0.6,0,0.8,0c0.6,0,1.1,0.1,1.4,0.4C-340.6-613.1-340.4-612.7-340.4-612.1z
		 M-341.6-611.9c0-0.6-0.4-1-1.3-1c-0.2,0-0.4,0-0.7,0.1c0,0.6,0,1.2,0,1.9c0.1,0,0.2,0,0.3,0C-342.1-610.9-341.6-611.2-341.6-611.9
		z M-335-612.1c0,0.7-0.3,1.2-0.8,1.6c-0.5,0.3-1.2,0.5-2,0.5c-0.1,0-0.2,0-0.3,0c0,0.6,0,1.3,0,2.2h-1.3c0-0.9,0.1-1.9,0.1-3
		c0-1.1,0-2-0.1-2.8h0.8c0.1,0,0.3,0,0.6,0c0.3,0,0.6,0,0.8,0c0.6,0,1.1,0.1,1.4,0.4S-335-612.7-335-612.1z M-336.2-611.9
		c0-0.6-0.4-1-1.3-1c-0.2,0-0.4,0-0.7,0.1c0,0.6,0,1.2,0,1.9c0.1,0,0.2,0,0.3,0C-336.7-610.9-336.2-611.2-336.2-611.9z
		 M-326.2-610.9c0,0.9-0.3,1.7-0.8,2.3c-0.6,0.6-1.3,0.9-2.1,0.9c-0.8,0-1.5-0.3-2-0.8c-0.5-0.6-0.8-1.2-0.8-2.1
		c0-0.9,0.3-1.7,0.8-2.3s1.3-0.9,2.1-0.9c0.8,0,1.5,0.3,2,0.8C-326.4-612.4-326.2-611.7-326.2-610.9z M-327.4-610.7
		c0-0.6-0.2-1.1-0.5-1.5s-0.7-0.6-1.2-0.6c-0.4,0-0.8,0.2-1.1,0.6c-0.3,0.4-0.5,0.9-0.5,1.5c0,0.6,0.2,1.1,0.5,1.5
		c0.3,0.4,0.7,0.6,1.2,0.6c0.4,0,0.8-0.2,1.1-0.6C-327.6-609.7-327.4-610.2-327.4-610.7z M-320-607.9h-1.1c0-0.1-0.4-0.8-1.2-1.9
		c-0.9-1.2-1.4-2.1-1.5-2.5h-0.1c0.1,0.6,0.1,1.2,0.1,1.8c0,0.7,0,1.6,0.1,2.7h-1.1c0-0.9,0.1-1.9,0.1-3c0-1.1,0-2-0.1-2.8h1.3
		c0,0.2,0.4,0.8,1.1,1.9c0.8,1.2,1.2,2,1.4,2.4h0.1c-0.1-0.7-0.1-1.3-0.1-1.8c0-0.8,0-1.6-0.1-2.5h1.1c0,0.7-0.1,1.7-0.1,2.8
		C-320.1-609.8-320.1-608.8-320-607.9z"/>
</g>
</svg>
