<?xml version="1.0" encoding="UTF-8"?>
<svg width="512px" height="512px" viewBox="0 0 512 512" version="1.1" xmlns="http://www.w3.org/2000/svg" xmlns:xlink="http://www.w3.org/1999/xlink">
    <!-- Generator: Sketch 52.4 (67378) - http://www.bohemiancoding.com/sketch -->
    <title>Skute_logo_cross</title>
    <desc>Created with Sketch.</desc>
    <g id="Page-1" stroke="none" stroke-width="1" fill="none" fill-rule="evenodd">
        <g id="Desktop-HD" transform="translate(-464.000000, -55.000000)" fill="#FFFFFF">
            <g id="Skute_logo_cross" transform="translate(464.000000, 55.000000)">
                <g id="A-/-Icon-/-Large-Cross" fill-opacity="0.1">
                    <polygon id="Page-1" style="mix-blend-mode: screen;" points="256.345434 152.570438 104.613812 0.842105263 0.842446732 104.606893 152.577358 256.338514 0.842446732 408.073425 104.613812 511.841502 256.345434 360.10988 408.077056 511.841502 511.845132 408.073425 360.11351 256.338514 511.845132 104.606893 408.077056 0.842105263"></polygon>
                </g>
                <g id="Group" transform="translate(84.000000, 221.000000)">
                    <g id="A-/-Skute-Logo">
                        <g>
                            <path d="M51.8362805,22.5482852 C50.7137908,21.2478262 49.2642668,20.1899902 47.4827908,19.3759902 C45.7037736,18.5632033 43.6247702,18.1568098 41.2519277,18.1568098 C39.4040613,18.1568098 37.7381538,18.5462197 36.2554346,19.3274656 C34.771486,20.1074984 34.0301264,21.3121213 34.0301264,22.9376951 C34.0301264,24.2417934 34.6522291,25.2498918 35.9013524,25.9632033 C37.1504757,26.6813672 38.989736,27.4274328 41.4215921,28.2098918 C44.4423558,29.1864492 47.1373147,30.2928098 49.5027805,31.5277607 C51.8670168,32.7651377 53.8710236,34.1978262 55.514801,35.8221869 C57.1561195,37.4501869 58.4212257,39.3050393 59.3088901,41.3855311 C60.1965545,43.4696623 60.6391572,45.8121869 60.6391572,48.414318 C60.6391572,52.8409738 59.6531366,56.6137607 57.6847839,59.736318 C55.7139723,62.8600885 53.2022017,65.3979246 50.1482428,67.3510393 C47.0942839,69.302941 43.7255853,70.7356295 40.0458353,71.6454656 C36.3636264,72.5565148 32.7760853,73.0126459 29.2807531,73.0126459 C26.5107976,73.0126459 23.7408421,72.7821541 20.9721161,72.3284492 C18.2021606,71.872318 15.5453147,71.2208754 13.0077257,70.3777607 C10.4701366,69.5310066 8.07762295,68.4901541 5.83633185,67.252777 C3.59504075,66.0178262 1.6500476,64.6178918 0.000122945205,63.0566131 L15.6301469,48.804941 C16.4206846,49.7172033 17.3759688,50.528777 18.499688,51.2445148 C19.6184894,51.9626787 20.7901572,52.5619574 22.0097736,53.0508426 C23.2293901,53.5385148 24.4662188,53.9291377 25.7202599,54.2227115 C26.9718421,54.5150721 28.1262976,54.661859 29.1823969,54.661859 C31.4900784,54.661859 33.3367154,54.2870066 34.7223079,53.5385148 C36.1066709,52.7924492 36.8000818,51.7006459 36.8000818,50.2691705 C36.8000818,49.0985148 36.2210099,48.0576623 35.0677839,47.1454 C33.9133284,46.2355639 31.7544106,45.2905475 28.589801,44.3139902 C26.0829483,43.5351705 23.7248592,42.6229082 21.5155339,41.5820557 C19.3062086,40.5424164 17.3931812,39.2880557 15.7789106,37.8250393 C14.1609517,36.3608098 12.8921572,34.6030066 11.9700682,32.5528426 C11.0455202,30.5038918 10.5844757,28.0145803 10.5844757,25.0861213 C10.5844757,21.5086459 11.3270647,18.1895639 12.8110134,15.1300885 C14.294962,12.0718262 16.4047017,9.41995738 19.141462,7.17448197 C21.8782223,4.93021967 25.141188,3.17241639 28.9352771,1.90349836 C32.7269072,0.635793443 36.898438,0.000121311475 41.4486401,0.000121311475 C43.9554928,0.000121311475 46.4279209,0.212416393 48.8683832,0.635793443 C51.3076161,1.05917049 53.6152976,1.64510492 55.7938866,2.39238361 C57.9687873,3.14087541 59.9801709,4.03494098 61.8280373,5.07579344 C63.6722154,6.11785902 65.2237839,7.28851475 66.4765955,8.59018689 L51.8362805,22.5482852 Z" id="Fill-1"></path>
                            <polygon id="Fill-4" points="108.122194 71.0598951 92.7896973 41.9718295 92.5917555 41.9718295 87.4477281 71.0598951 65.1897281 71.0598951 77.5567863 1.95238689 99.7139712 1.95238689 94.9658274 28.4043541 95.2633548 28.4043541 117.421769 1.95238689 145.318036 1.95238689 113.861276 35.3348787 135.525451 71.0598951"></polygon>
                            <path d="M202.841639,56.8578393 C201.093358,60.2108885 198.785677,63.0556426 195.917365,65.3981672 C193.047824,67.7406918 189.60044,69.5640033 185.580132,70.8644623 C181.556136,72.1661344 176.939543,72.8163639 171.729125,72.8163639 C167.244084,72.8163639 163.157386,72.3286918 159.464112,71.3521344 C155.769608,70.3780033 152.603769,68.9610852 149.966595,67.1062328 C147.32819,65.2525934 145.284841,62.9925607 143.834088,60.3224951 C142.382105,57.6548557 141.656728,54.6293475 141.656728,51.2447574 C141.656728,50.3349213 141.723118,49.2782984 141.855899,48.0724623 C141.987451,46.8702656 142.117773,45.7784623 142.251783,44.8019049 L149.670297,1.95226557 L172.32418,1.95226557 L165.102379,41.8734459 C164.969598,42.3962984 164.905666,42.9482656 164.905666,43.5354131 L164.905666,45.0966918 C164.905666,47.2426918 165.563423,49.1315115 166.883855,50.7570852 C168.201827,52.3838721 170.444348,53.196659 173.610187,53.196659 C175.653536,53.196659 177.319444,52.8727574 178.605451,52.2213148 C179.891458,51.5722984 180.930345,50.7255443 181.720882,49.6834787 C182.513879,48.6438393 183.106475,47.4731836 183.502358,46.1690852 C183.898242,44.8686262 184.226505,43.5681672 184.490838,42.265282 L191.909351,1.95226557 L214.168581,1.95226557 L206.550896,45.6814131" id="Fill-6"></path>
                            <polygon id="Fill-8" points="257.495824 20.9856721 248.592132 71.0594098 225.64318 71.0594098 234.546872 20.9856721 216.839074 20.9856721 220.299981 1.95311475 278.071933 1.95311475 274.609796 20.9856721"></polygon>
                            <polygon id="Fill-10" points="272.334449 71.0598951 284.700278 1.95238689 330.502285 1.95238689 327.137275 20.7908459 302.901086 20.7908459 301.713436 27.4277967 324.862788 27.4277967 321.696949 44.9985508 298.548826 44.9985508 297.262819 52.2214361 324.367319 52.2214361 321.004768 71.0598951"></polygon>
                            <polygon id="Fill-12" points="341.99299 11.9945508 338.481675 11.9945508 338.481675 4.61396066 335.914579 4.61396066 335.914579 1.68792787 344.560086 1.68792787 344.560086 4.61396066 341.99299 4.61396066"></polygon>
                            <polygon id="Fill-14" points="348.750181 6.17184262 348.912469 11.9947934 345.637209 11.9947934 345.637209 1.68817049 350.230441 1.68817049 352.121339 7.23453115 352.195106 7.23453115 353.835195 1.68817049 358.575962 1.68817049 358.575962 11.9947934 355.153167 11.9947934 355.256441 6.20095738 355.167921 6.1864 353.220469 11.9947934 350.741893 11.9947934 348.823948 6.17184262"></polygon>
                        </g>
                    </g>
                </g>
            </g>
        </g>
    </g>
</svg>